<svg width="1440" height="1024" viewBox="0 0 1440 1024" fill="none" xmlns="http://www.w3.org/2000/svg">
<rect width="1440" height="1024" fill="white"/>
<rect width="1440" height="88" fill="#D9D9D9"/>
<path d="M23.5227 59V29.9091H33.6932C35.7197 29.9091 37.3911 30.2595 38.7074 30.9602C40.0237 31.6515 41.0038 32.5843 41.6477 33.7585C42.2917 34.9233 42.6136 36.2159 42.6136 37.6364C42.6136 38.8864 42.3911 39.9186 41.946 40.733C41.5104 41.5473 40.9328 42.1913 40.2131 42.6648C39.5028 43.1383 38.7311 43.4886 37.8977 43.7159V44C38.7879 44.0568 39.6828 44.3693 40.5824 44.9375C41.482 45.5057 42.2348 46.3201 42.8409 47.3807C43.447 48.4413 43.75 49.7386 43.75 51.2727C43.75 52.7311 43.4186 54.0426 42.7557 55.2074C42.0928 56.3722 41.0464 57.2955 39.6165 57.9773C38.1866 58.6591 36.3258 59 34.0341 59H23.5227ZM27.0455 55.875H34.0341C36.3352 55.875 37.9688 55.4299 38.9347 54.5398C39.91 53.6402 40.3977 52.5511 40.3977 51.2727C40.3977 50.2879 40.1468 49.3788 39.6449 48.5455C39.143 47.7027 38.428 47.0303 37.5 46.5284C36.572 46.017 35.4735 45.7614 34.2045 45.7614H27.0455V55.875ZM27.0455 42.6932H33.5795C34.6402 42.6932 35.5966 42.4848 36.4489 42.0682C37.3106 41.6515 37.9924 41.0644 38.4943 40.3068C39.0057 39.5492 39.2614 38.6591 39.2614 37.6364C39.2614 36.358 38.8163 35.2737 37.9261 34.3835C37.036 33.4839 35.625 33.0341 33.6932 33.0341H27.0455V42.6932ZM58.2315 59.4545C56.1293 59.4545 54.3158 58.9905 52.7912 58.0625C51.276 57.125 50.1065 55.8182 49.2827 54.142C48.4683 52.4564 48.0611 50.4962 48.0611 48.2614C48.0611 46.0265 48.4683 44.0568 49.2827 42.3523C50.1065 40.6383 51.2524 39.303 52.7202 38.3466C54.1974 37.3807 55.9209 36.8977 57.8906 36.8977C59.027 36.8977 60.1491 37.0871 61.2571 37.4659C62.3651 37.8447 63.3736 38.4602 64.2827 39.3125C65.1918 40.1553 65.9162 41.2727 66.456 42.6648C66.9957 44.0568 67.2656 45.7708 67.2656 47.8068V49.2273H50.4474V46.3295H63.8565C63.8565 45.0985 63.6103 44 63.1179 43.0341C62.6349 42.0682 61.9437 41.3059 61.044 40.7472C60.1539 40.1884 59.1027 39.9091 57.8906 39.9091C56.5554 39.9091 55.4001 40.2405 54.4247 40.9034C53.4588 41.5568 52.7154 42.4091 52.1946 43.4602C51.6738 44.5114 51.4134 45.6383 51.4134 46.8409V48.7727C51.4134 50.4205 51.6974 51.8172 52.2656 52.9631C52.8433 54.0994 53.6435 54.9659 54.6662 55.5625C55.6889 56.1496 56.8774 56.4432 58.2315 56.4432C59.1122 56.4432 59.9077 56.3201 60.6179 56.0739C61.3376 55.8182 61.9579 55.4394 62.4787 54.9375C62.9995 54.4261 63.402 53.7917 63.6861 53.0341L66.9247 53.9432C66.5838 55.0417 66.0109 56.0076 65.206 56.8409C64.401 57.6648 63.4067 58.3087 62.223 58.7727C61.0393 59.2273 59.7088 59.4545 58.2315 59.4545ZM81.5128 59.4545C79.4105 59.4545 77.5971 58.9905 76.0724 58.0625C74.5573 57.125 73.3878 55.8182 72.5639 54.142C71.7495 52.4564 71.3423 50.4962 71.3423 48.2614C71.3423 46.0265 71.7495 44.0568 72.5639 42.3523C73.3878 40.6383 74.5336 39.303 76.0014 38.3466C77.4787 37.3807 79.2022 36.8977 81.1719 36.8977C82.3082 36.8977 83.4304 37.0871 84.5384 37.4659C85.6463 37.8447 86.6548 38.4602 87.5639 39.3125C88.473 40.1553 89.1974 41.2727 89.7372 42.6648C90.277 44.0568 90.5469 45.7708 90.5469 47.8068V49.2273H73.7287V46.3295H87.1378C87.1378 45.0985 86.8916 44 86.3991 43.0341C85.9162 42.0682 85.2249 41.3059 84.3253 40.7472C83.4351 40.1884 82.384 39.9091 81.1719 39.9091C79.8366 39.9091 78.6813 40.2405 77.706 40.9034C76.7401 41.5568 75.9967 42.4091 75.4759 43.4602C74.955 44.5114 74.6946 45.6383 74.6946 46.8409V48.7727C74.6946 50.4205 74.9787 51.8172 75.5469 52.9631C76.1245 54.0994 76.9247 54.9659 77.9474 55.5625C78.9702 56.1496 80.1586 56.4432 81.5128 56.4432C82.3935 56.4432 83.1889 56.3201 83.8991 56.0739C84.6188 55.8182 85.2391 55.4394 85.7599 54.9375C86.2808 54.4261 86.6832 53.7917 86.9673 53.0341L90.206 53.9432C89.8651 55.0417 89.2921 56.0076 88.4872 56.8409C87.6823 57.6648 86.688 58.3087 85.5043 58.7727C84.3205 59.2273 82.9901 59.4545 81.5128 59.4545ZM95.6463 59V37.1818H98.8849V40.4773H99.1122C99.5099 39.3977 100.23 38.5218 101.271 37.8494C102.313 37.1771 103.487 36.8409 104.794 36.8409C105.04 36.8409 105.348 36.8456 105.717 36.8551C106.087 36.8646 106.366 36.8788 106.555 36.8977V40.3068C106.442 40.2784 106.181 40.2358 105.774 40.179C105.376 40.1127 104.955 40.0795 104.51 40.0795C103.449 40.0795 102.502 40.3021 101.669 40.7472C100.845 41.1828 100.192 41.7888 99.7088 42.5653C99.2353 43.3324 98.9986 44.2083 98.9986 45.1932V59H95.6463ZM110.529 67.1818V37.1818H113.768V40.6477H114.165C114.412 40.2689 114.753 39.786 115.188 39.1989C115.633 38.6023 116.268 38.072 117.092 37.608C117.925 37.1345 119.052 36.8977 120.472 36.8977C122.309 36.8977 123.929 37.357 125.33 38.2756C126.732 39.1941 127.826 40.4962 128.612 42.1818C129.397 43.8674 129.79 45.8561 129.79 48.1477C129.79 50.4583 129.397 52.4612 128.612 54.1562C127.826 55.8419 126.737 57.1487 125.344 58.0767C123.952 58.9953 122.347 59.4545 120.529 59.4545C119.128 59.4545 118.005 59.2225 117.163 58.7585C116.32 58.285 115.671 57.75 115.217 57.1534C114.762 56.5473 114.412 56.0455 114.165 55.6477H113.881V67.1818H110.529ZM113.825 48.0909C113.825 49.7386 114.066 51.1922 114.549 52.4517C115.032 53.7017 115.737 54.6818 116.665 55.392C117.594 56.0928 118.73 56.4432 120.075 56.4432C121.476 56.4432 122.646 56.0739 123.583 55.3352C124.53 54.5871 125.24 53.5833 125.714 52.3239C126.197 51.0549 126.438 49.6439 126.438 48.0909C126.438 46.5568 126.201 45.1742 125.728 43.9432C125.264 42.7027 124.558 41.7225 123.612 41.0028C122.674 40.2737 121.495 39.9091 120.075 39.9091C118.711 39.9091 117.565 40.2547 116.637 40.946C115.709 41.6278 115.008 42.5843 114.535 43.8153C114.061 45.0369 113.825 46.4621 113.825 48.0909ZM143.768 59.4545C141.798 59.4545 140.07 58.9858 138.583 58.0483C137.106 57.1108 135.951 55.7992 135.117 54.1136C134.293 52.428 133.881 50.4583 133.881 48.2045C133.881 45.9318 134.293 43.9479 135.117 42.2528C135.951 40.5578 137.106 39.2415 138.583 38.304C140.07 37.3665 141.798 36.8977 143.768 36.8977C145.737 36.8977 147.461 37.3665 148.938 38.304C150.425 39.2415 151.58 40.5578 152.404 42.2528C153.237 43.9479 153.654 45.9318 153.654 48.2045C153.654 50.4583 153.237 52.428 152.404 54.1136C151.58 55.7992 150.425 57.1108 148.938 58.0483C147.461 58.9858 145.737 59.4545 143.768 59.4545ZM143.768 56.4432C145.264 56.4432 146.495 56.0597 147.461 55.2926C148.427 54.5256 149.142 53.517 149.606 52.267C150.07 51.017 150.302 49.6629 150.302 48.2045C150.302 46.7462 150.07 45.3873 149.606 44.1278C149.142 42.8684 148.427 41.8504 147.461 41.0739C146.495 40.2973 145.264 39.9091 143.768 39.9091C142.272 39.9091 141.04 40.2973 140.075 41.0739C139.109 41.8504 138.394 42.8684 137.93 44.1278C137.466 45.3873 137.234 46.7462 137.234 48.2045C137.234 49.6629 137.466 51.017 137.93 52.267C138.394 53.517 139.109 54.5256 140.075 55.2926C141.04 56.0597 142.272 56.4432 143.768 56.4432ZM162.124 45.875V59H158.771V37.1818H162.01V40.5909H162.294C162.805 39.483 163.582 38.5928 164.624 37.9205C165.665 37.2386 167.01 36.8977 168.658 36.8977C170.135 36.8977 171.428 37.2008 172.536 37.8068C173.643 38.4034 174.505 39.3125 175.121 40.5341C175.736 41.7462 176.044 43.2803 176.044 45.1364V59H172.692V45.3636C172.692 43.6496 172.247 42.3144 171.357 41.358C170.466 40.392 169.245 39.9091 167.692 39.9091C166.622 39.9091 165.665 40.1411 164.822 40.6051C163.989 41.0691 163.331 41.7462 162.848 42.6364C162.365 43.5265 162.124 44.6061 162.124 45.875ZM190.977 67.6364C189.357 67.6364 187.965 67.428 186.8 67.0114C185.636 66.6042 184.665 66.0644 183.888 65.392C183.121 64.7292 182.511 64.0189 182.056 63.2614L184.727 61.3864C185.03 61.7841 185.413 62.2386 185.877 62.75C186.341 63.2708 186.976 63.7206 187.781 64.0994C188.595 64.4877 189.66 64.6818 190.977 64.6818C192.738 64.6818 194.192 64.2557 195.337 63.4034C196.483 62.5511 197.056 61.2159 197.056 59.3977V54.9659H196.772C196.526 55.3636 196.175 55.8561 195.721 56.4432C195.276 57.0208 194.632 57.5369 193.789 57.9915C192.956 58.4366 191.829 58.6591 190.408 58.6591C188.647 58.6591 187.066 58.2424 185.664 57.4091C184.272 56.5758 183.169 55.3636 182.354 53.7727C181.549 52.1818 181.147 50.25 181.147 47.9773C181.147 45.7424 181.54 43.7964 182.326 42.1392C183.112 40.4725 184.206 39.1847 185.607 38.2756C187.009 37.357 188.628 36.8977 190.465 36.8977C191.886 36.8977 193.013 37.1345 193.846 37.608C194.689 38.072 195.333 38.6023 195.778 39.1989C196.232 39.786 196.583 40.2689 196.829 40.6477H197.17V37.1818H200.408V59.625C200.408 61.5 199.982 63.0246 199.13 64.1989C198.287 65.3826 197.151 66.2491 195.721 66.7983C194.3 67.357 192.719 67.6364 190.977 67.6364ZM190.863 55.6477C192.208 55.6477 193.344 55.34 194.272 54.7244C195.2 54.1089 195.906 53.2235 196.388 52.0682C196.871 50.9129 197.113 49.5303 197.113 47.9205C197.113 46.3485 196.876 44.9612 196.403 43.7585C195.929 42.5559 195.228 41.6136 194.3 40.9318C193.372 40.25 192.227 39.9091 190.863 39.9091C189.442 39.9091 188.259 40.2689 187.312 40.9886C186.374 41.7083 185.669 42.6742 185.195 43.8864C184.731 45.0985 184.499 46.4432 184.499 47.9205C184.499 49.4356 184.736 50.7756 185.21 51.9403C185.692 53.0956 186.403 54.0047 187.34 54.6676C188.287 55.321 189.461 55.6477 190.863 55.6477ZM216.658 33.0341V29.9091H238.477V33.0341H229.329V59H225.806V33.0341H216.658ZM249.158 59.4545C247.189 59.4545 245.46 58.9858 243.974 58.0483C242.496 57.1108 241.341 55.7992 240.508 54.1136C239.684 52.428 239.272 50.4583 239.272 48.2045C239.272 45.9318 239.684 43.9479 240.508 42.2528C241.341 40.5578 242.496 39.2415 243.974 38.304C245.46 37.3665 247.189 36.8977 249.158 36.8977C251.128 36.8977 252.852 37.3665 254.329 38.304C255.816 39.2415 256.971 40.5578 257.795 42.2528C258.628 43.9479 259.045 45.9318 259.045 48.2045C259.045 50.4583 258.628 52.428 257.795 54.1136C256.971 55.7992 255.816 57.1108 254.329 58.0483C252.852 58.9858 251.128 59.4545 249.158 59.4545ZM249.158 56.4432C250.655 56.4432 251.886 56.0597 252.852 55.2926C253.817 54.5256 254.532 53.517 254.996 52.267C255.46 51.017 255.692 49.6629 255.692 48.2045C255.692 46.7462 255.46 45.3873 254.996 44.1278C254.532 42.8684 253.817 41.8504 252.852 41.0739C251.886 40.2973 250.655 39.9091 249.158 39.9091C247.662 39.9091 246.431 40.2973 245.465 41.0739C244.499 41.8504 243.784 42.8684 243.32 44.1278C242.856 45.3873 242.624 46.7462 242.624 48.2045C242.624 49.6629 242.856 51.017 243.32 52.267C243.784 53.517 244.499 54.5256 245.465 55.2926C246.431 56.0597 247.662 56.4432 249.158 56.4432ZM277.912 50.0795V37.1818H281.264V59H277.912V55.3068H277.685C277.173 56.4148 276.378 57.357 275.298 58.1335C274.219 58.9006 272.855 59.2841 271.207 59.2841C269.844 59.2841 268.632 58.9858 267.571 58.3892C266.51 57.7831 265.677 56.8741 265.071 55.6619C264.465 54.4403 264.162 52.9015 264.162 51.0455V37.1818H267.514V50.8182C267.514 52.4091 267.959 53.678 268.849 54.625C269.749 55.572 270.895 56.0455 272.287 56.0455C273.12 56.0455 273.968 55.8324 274.83 55.4062C275.701 54.9801 276.43 54.3267 277.017 53.446C277.614 52.5653 277.912 51.4432 277.912 50.0795ZM287.404 59V37.1818H290.643V40.4773H290.87C291.268 39.3977 291.987 38.5218 293.029 37.8494C294.071 37.1771 295.245 36.8409 296.552 36.8409C296.798 36.8409 297.106 36.8456 297.475 36.8551C297.844 36.8646 298.124 36.8788 298.313 36.8977V40.3068C298.2 40.2784 297.939 40.2358 297.532 40.179C297.134 40.1127 296.713 40.0795 296.268 40.0795C295.207 40.0795 294.26 40.3021 293.427 40.7472C292.603 41.1828 291.95 41.7888 291.467 42.5653C290.993 43.3324 290.756 44.2083 290.756 45.1932V59H287.404ZM305.639 45.875V59H302.287V37.1818H305.526V40.5909H305.81C306.321 39.483 307.098 38.5928 308.139 37.9205C309.181 37.2386 310.526 36.8977 312.173 36.8977C313.651 36.8977 314.943 37.2008 316.051 37.8068C317.159 38.4034 318.021 39.3125 318.636 40.5341C319.252 41.7462 319.56 43.2803 319.56 45.1364V59H316.207V45.3636C316.207 43.6496 315.762 42.3144 314.872 41.358C313.982 40.392 312.76 39.9091 311.207 39.9091C310.137 39.9091 309.181 40.1411 308.338 40.6051C307.505 41.0691 306.847 41.7462 306.364 42.6364C305.881 43.5265 305.639 44.6061 305.639 45.875ZM332.106 59.5114C330.723 59.5114 329.469 59.2509 328.342 58.7301C327.215 58.1998 326.32 57.4375 325.657 56.4432C324.994 55.4394 324.663 54.2273 324.663 52.8068C324.663 51.5568 324.909 50.5436 325.401 49.767C325.894 48.9811 326.552 48.3655 327.376 47.9205C328.2 47.4754 329.109 47.1439 330.103 46.9261C331.107 46.6989 332.115 46.5189 333.129 46.3864C334.454 46.2159 335.529 46.0881 336.353 46.0028C337.186 45.9081 337.792 45.7519 338.171 45.5341C338.559 45.3163 338.754 44.9375 338.754 44.3977V44.2841C338.754 42.8826 338.37 41.7936 337.603 41.017C336.845 40.2405 335.695 39.8523 334.151 39.8523C332.551 39.8523 331.296 40.2027 330.387 40.9034C329.478 41.6042 328.839 42.3523 328.469 43.1477L325.288 42.0114C325.856 40.6856 326.613 39.6534 327.56 38.9148C328.517 38.1667 329.558 37.6458 330.685 37.3523C331.822 37.0492 332.939 36.8977 334.038 36.8977C334.738 36.8977 335.543 36.983 336.452 37.1534C337.371 37.3144 338.256 37.6506 339.109 38.1619C339.97 38.6733 340.685 39.4451 341.254 40.4773C341.822 41.5095 342.106 42.892 342.106 44.625V59H338.754V56.0455H338.583C338.356 56.5189 337.977 57.0256 337.447 57.5653C336.916 58.1051 336.211 58.5644 335.33 58.9432C334.45 59.322 333.375 59.5114 332.106 59.5114ZM332.617 56.5C333.943 56.5 335.06 56.2396 335.969 55.7188C336.888 55.1979 337.579 54.5256 338.043 53.7017C338.517 52.8778 338.754 52.0114 338.754 51.1023V48.0341C338.612 48.2045 338.299 48.3608 337.816 48.5028C337.343 48.6354 336.793 48.7538 336.168 48.858C335.553 48.9527 334.951 49.0379 334.364 49.1136C333.787 49.1799 333.318 49.2367 332.958 49.2841C332.087 49.3977 331.272 49.5824 330.515 49.8381C329.767 50.0843 329.161 50.4583 328.697 50.9602C328.242 51.4527 328.015 52.125 328.015 52.9773C328.015 54.142 328.446 55.0227 329.308 55.6193C330.179 56.2064 331.282 56.5 332.617 56.5ZM348.224 59V37.1818H351.463V40.5909H351.747C352.202 39.4261 352.936 38.5218 353.949 37.8778C354.962 37.2244 356.179 36.8977 357.599 36.8977C359.039 36.8977 360.237 37.2244 361.193 37.8778C362.159 38.5218 362.912 39.4261 363.452 40.5909H363.679C364.238 39.464 365.076 38.5691 366.193 37.9062C367.311 37.2339 368.651 36.8977 370.213 36.8977C372.164 36.8977 373.759 37.5085 375 38.7301C376.241 39.9422 376.861 41.8314 376.861 44.3977V59H373.509V44.3977C373.509 42.7879 373.068 41.6373 372.188 40.946C371.307 40.2547 370.27 39.9091 369.077 39.9091C367.543 39.9091 366.354 40.3731 365.511 41.3011C364.669 42.2197 364.247 43.3845 364.247 44.7955V59H360.838V44.0568C360.838 42.8163 360.436 41.8172 359.631 41.0597C358.826 40.2926 357.789 39.9091 356.52 39.9091C355.649 39.9091 354.834 40.1411 354.077 40.6051C353.329 41.0691 352.723 41.7131 352.259 42.5369C351.804 43.3513 351.577 44.2936 351.577 45.3636V59H348.224ZM392.138 59.4545C390.036 59.4545 388.222 58.9905 386.697 58.0625C385.182 57.125 384.013 55.8182 383.189 54.142C382.375 52.4564 381.967 50.4962 381.967 48.2614C381.967 46.0265 382.375 44.0568 383.189 42.3523C384.013 40.6383 385.159 39.303 386.626 38.3466C388.104 37.3807 389.827 36.8977 391.797 36.8977C392.933 36.8977 394.055 37.0871 395.163 37.4659C396.271 37.8447 397.28 38.4602 398.189 39.3125C399.098 40.1553 399.822 41.2727 400.362 42.6648C400.902 44.0568 401.172 45.7708 401.172 47.8068V49.2273H384.354V46.3295H397.763C397.763 45.0985 397.517 44 397.024 43.0341C396.541 42.0682 395.85 41.3059 394.95 40.7472C394.06 40.1884 393.009 39.9091 391.797 39.9091C390.462 39.9091 389.306 40.2405 388.331 40.9034C387.365 41.5568 386.622 42.4091 386.101 43.4602C385.58 44.5114 385.32 45.6383 385.32 46.8409V48.7727C385.32 50.4205 385.604 51.8172 386.172 52.9631C386.75 54.0994 387.55 54.9659 388.572 55.5625C389.595 56.1496 390.784 56.4432 392.138 56.4432C393.018 56.4432 393.814 56.3201 394.524 56.0739C395.244 55.8182 395.864 55.4394 396.385 54.9375C396.906 54.4261 397.308 53.7917 397.592 53.0341L400.831 53.9432C400.49 55.0417 399.917 56.0076 399.112 56.8409C398.307 57.6648 397.313 58.3087 396.129 58.7727C394.946 59.2273 393.615 59.4545 392.138 59.4545ZM409.624 45.875V59H406.271V37.1818H409.51V40.5909H409.794C410.305 39.483 411.082 38.5928 412.124 37.9205C413.165 37.2386 414.51 36.8977 416.158 36.8977C417.635 36.8977 418.928 37.2008 420.036 37.8068C421.143 38.4034 422.005 39.3125 422.621 40.5341C423.236 41.7462 423.544 43.2803 423.544 45.1364V59H420.192V45.3636C420.192 43.6496 419.747 42.3144 418.857 41.358C417.966 40.392 416.745 39.9091 415.192 39.9091C414.122 39.9091 413.165 40.1411 412.322 40.6051C411.489 41.0691 410.831 41.7462 410.348 42.6364C409.865 43.5265 409.624 44.6061 409.624 45.875ZM439.158 37.1818V40.0227H427.852V37.1818H439.158ZM431.147 31.9545H434.499V52.75C434.499 53.697 434.637 54.4072 434.911 54.8807C435.195 55.3447 435.555 55.6572 435.991 55.8182C436.436 55.9697 436.905 56.0455 437.397 56.0455C437.766 56.0455 438.069 56.0265 438.306 55.9886C438.543 55.9413 438.732 55.9034 438.874 55.875L439.556 58.8864C439.329 58.9716 439.012 59.0568 438.604 59.142C438.197 59.2367 437.681 59.2841 437.056 59.2841C436.109 59.2841 435.181 59.0805 434.272 58.6733C433.372 58.2661 432.624 57.6458 432.028 56.8125C431.441 55.9792 431.147 54.928 431.147 53.6591V31.9545Z" fill="black"/>
<rect x="281" y="168" width="875" height="716" fill="#D9D9D9"/>
<path d="M359.932 251.034V247.909H381.75V251.034H372.602V277H369.08V251.034H359.932ZM392.716 277.455C390.614 277.455 388.8 276.991 387.276 276.062C385.76 275.125 384.591 273.818 383.767 272.142C382.953 270.456 382.545 268.496 382.545 266.261C382.545 264.027 382.953 262.057 383.767 260.352C384.591 258.638 385.737 257.303 387.205 256.347C388.682 255.381 390.405 254.898 392.375 254.898C393.511 254.898 394.634 255.087 395.741 255.466C396.849 255.845 397.858 256.46 398.767 257.312C399.676 258.155 400.401 259.273 400.94 260.665C401.48 262.057 401.75 263.771 401.75 265.807V267.227H384.932V264.33H398.341C398.341 263.098 398.095 262 397.602 261.034C397.119 260.068 396.428 259.306 395.528 258.747C394.638 258.188 393.587 257.909 392.375 257.909C391.04 257.909 389.884 258.241 388.909 258.903C387.943 259.557 387.2 260.409 386.679 261.46C386.158 262.511 385.898 263.638 385.898 264.841V266.773C385.898 268.42 386.182 269.817 386.75 270.963C387.328 272.099 388.128 272.966 389.151 273.562C390.173 274.15 391.362 274.443 392.716 274.443C393.597 274.443 394.392 274.32 395.102 274.074C395.822 273.818 396.442 273.439 396.963 272.938C397.484 272.426 397.886 271.792 398.17 271.034L401.409 271.943C401.068 273.042 400.495 274.008 399.69 274.841C398.885 275.665 397.891 276.309 396.707 276.773C395.524 277.227 394.193 277.455 392.716 277.455ZM413.27 277.511C411.887 277.511 410.633 277.251 409.506 276.73C408.379 276.2 407.484 275.438 406.821 274.443C406.158 273.439 405.827 272.227 405.827 270.807C405.827 269.557 406.073 268.544 406.565 267.767C407.058 266.981 407.716 266.366 408.54 265.92C409.364 265.475 410.273 265.144 411.267 264.926C412.271 264.699 413.279 264.519 414.293 264.386C415.618 264.216 416.693 264.088 417.517 264.003C418.35 263.908 418.956 263.752 419.335 263.534C419.723 263.316 419.918 262.937 419.918 262.398V262.284C419.918 260.883 419.534 259.794 418.767 259.017C418.009 258.241 416.859 257.852 415.315 257.852C413.715 257.852 412.46 258.203 411.551 258.903C410.642 259.604 410.003 260.352 409.634 261.148L406.452 260.011C407.02 258.686 407.777 257.653 408.724 256.915C409.681 256.167 410.723 255.646 411.849 255.352C412.986 255.049 414.103 254.898 415.202 254.898C415.902 254.898 416.707 254.983 417.616 255.153C418.535 255.314 419.42 255.651 420.273 256.162C421.134 256.673 421.849 257.445 422.418 258.477C422.986 259.509 423.27 260.892 423.27 262.625V277H419.918V274.045H419.747C419.52 274.519 419.141 275.026 418.611 275.565C418.08 276.105 417.375 276.564 416.494 276.943C415.614 277.322 414.539 277.511 413.27 277.511ZM413.781 274.5C415.107 274.5 416.224 274.24 417.134 273.719C418.052 273.198 418.743 272.526 419.207 271.702C419.681 270.878 419.918 270.011 419.918 269.102V266.034C419.776 266.205 419.463 266.361 418.98 266.503C418.507 266.635 417.957 266.754 417.332 266.858C416.717 266.953 416.116 267.038 415.528 267.114C414.951 267.18 414.482 267.237 414.122 267.284C413.251 267.398 412.437 267.582 411.679 267.838C410.931 268.084 410.325 268.458 409.861 268.96C409.406 269.453 409.179 270.125 409.179 270.977C409.179 272.142 409.61 273.023 410.472 273.619C411.343 274.206 412.446 274.5 413.781 274.5ZM429.388 277V255.182H432.627V258.591H432.911C433.366 257.426 434.1 256.522 435.113 255.878C436.126 255.224 437.343 254.898 438.763 254.898C440.203 254.898 441.401 255.224 442.357 255.878C443.323 256.522 444.076 257.426 444.616 258.591H444.843C445.402 257.464 446.24 256.569 447.357 255.906C448.475 255.234 449.815 254.898 451.377 254.898C453.328 254.898 454.924 255.509 456.164 256.73C457.405 257.942 458.025 259.831 458.025 262.398V277H454.673V262.398C454.673 260.788 454.232 259.637 453.352 258.946C452.471 258.255 451.434 257.909 450.241 257.909C448.707 257.909 447.518 258.373 446.675 259.301C445.833 260.22 445.411 261.384 445.411 262.795V277H442.002V262.057C442.002 260.816 441.6 259.817 440.795 259.06C439.99 258.293 438.953 257.909 437.684 257.909C436.813 257.909 435.998 258.141 435.241 258.605C434.493 259.069 433.887 259.713 433.423 260.537C432.968 261.351 432.741 262.294 432.741 263.364V277H429.388ZM479.609 260.068L476.597 260.92C476.408 260.419 476.129 259.931 475.759 259.457C475.399 258.974 474.907 258.577 474.282 258.264C473.657 257.952 472.857 257.795 471.881 257.795C470.546 257.795 469.433 258.103 468.543 258.719C467.663 259.325 467.222 260.097 467.222 261.034C467.222 261.867 467.525 262.526 468.131 263.009C468.737 263.491 469.684 263.894 470.972 264.216L474.211 265.011C476.162 265.485 477.615 266.209 478.572 267.185C479.528 268.151 480.006 269.396 480.006 270.92C480.006 272.17 479.647 273.288 478.927 274.273C478.217 275.258 477.222 276.034 475.944 276.602C474.665 277.17 473.179 277.455 471.484 277.455C469.258 277.455 467.416 276.972 465.958 276.006C464.5 275.04 463.576 273.629 463.188 271.773L466.37 270.977C466.673 272.152 467.246 273.032 468.089 273.619C468.941 274.206 470.054 274.5 471.427 274.5C472.989 274.5 474.23 274.169 475.148 273.506C476.076 272.833 476.54 272.028 476.54 271.091C476.54 270.333 476.275 269.699 475.745 269.188C475.215 268.667 474.4 268.278 473.302 268.023L469.665 267.17C467.667 266.697 466.2 265.963 465.262 264.969C464.334 263.965 463.87 262.71 463.87 261.205C463.87 259.973 464.216 258.884 464.907 257.938C465.608 256.991 466.559 256.247 467.762 255.707C468.974 255.168 470.347 254.898 471.881 254.898C474.04 254.898 475.736 255.371 476.967 256.318C478.207 257.265 479.088 258.515 479.609 260.068ZM487.496 277.227C486.795 277.227 486.194 276.976 485.692 276.474C485.19 275.973 484.939 275.371 484.939 274.67C484.939 273.97 485.19 273.368 485.692 272.866C486.194 272.365 486.795 272.114 487.496 272.114C488.196 272.114 488.798 272.365 489.3 272.866C489.802 273.368 490.053 273.97 490.053 274.67C490.053 275.134 489.934 275.561 489.697 275.949C489.47 276.337 489.162 276.65 488.774 276.886C488.395 277.114 487.969 277.227 487.496 277.227ZM487.496 261.034C486.795 261.034 486.194 260.783 485.692 260.281C485.19 259.779 484.939 259.178 484.939 258.477C484.939 257.777 485.19 257.175 485.692 256.673C486.194 256.171 486.795 255.92 487.496 255.92C488.196 255.92 488.798 256.171 489.3 256.673C489.802 257.175 490.053 257.777 490.053 258.477C490.053 258.941 489.934 259.367 489.697 259.756C489.47 260.144 489.162 260.456 488.774 260.693C488.395 260.92 487.969 261.034 487.496 261.034Z" fill="black"/>
<path d="M364.523 367V337.909H374.352C376.634 337.909 378.5 338.321 379.949 339.145C381.407 339.959 382.487 341.062 383.188 342.455C383.888 343.847 384.239 345.4 384.239 347.114C384.239 348.828 383.888 350.385 383.188 351.787C382.496 353.188 381.426 354.306 379.977 355.139C378.528 355.963 376.672 356.375 374.409 356.375H367.364V353.25H374.295C375.858 353.25 377.113 352.98 378.06 352.44C379.007 351.901 379.693 351.171 380.119 350.253C380.555 349.325 380.773 348.278 380.773 347.114C380.773 345.949 380.555 344.907 380.119 343.989C379.693 343.07 379.002 342.35 378.045 341.83C377.089 341.299 375.82 341.034 374.239 341.034H368.045V367H364.523ZM392.811 337.909V367H389.459V337.909H392.811ZM405.371 367.511C403.989 367.511 402.734 367.251 401.607 366.73C400.48 366.2 399.585 365.438 398.923 364.443C398.26 363.439 397.928 362.227 397.928 360.807C397.928 359.557 398.174 358.544 398.667 357.767C399.159 356.981 399.817 356.366 400.641 355.92C401.465 355.475 402.374 355.144 403.369 354.926C404.372 354.699 405.381 354.519 406.394 354.386C407.72 354.216 408.795 354.088 409.619 354.003C410.452 353.908 411.058 353.752 411.437 353.534C411.825 353.316 412.019 352.937 412.019 352.398V352.284C412.019 350.883 411.636 349.794 410.869 349.017C410.111 348.241 408.96 347.852 407.417 347.852C405.817 347.852 404.562 348.203 403.653 348.903C402.744 349.604 402.104 350.352 401.735 351.148L398.553 350.011C399.121 348.686 399.879 347.653 400.826 346.915C401.782 346.167 402.824 345.646 403.951 345.352C405.087 345.049 406.205 344.898 407.303 344.898C408.004 344.898 408.809 344.983 409.718 345.153C410.637 345.314 411.522 345.651 412.374 346.162C413.236 346.673 413.951 347.445 414.519 348.477C415.087 349.509 415.371 350.892 415.371 352.625V367H412.019V364.045H411.849C411.621 364.519 411.243 365.026 410.712 365.565C410.182 366.105 409.477 366.564 408.596 366.943C407.715 367.322 406.64 367.511 405.371 367.511ZM405.883 364.5C407.209 364.5 408.326 364.24 409.235 363.719C410.154 363.198 410.845 362.526 411.309 361.702C411.782 360.878 412.019 360.011 412.019 359.102V356.034C411.877 356.205 411.565 356.361 411.082 356.503C410.608 356.635 410.059 356.754 409.434 356.858C408.818 356.953 408.217 357.038 407.63 357.114C407.052 357.18 406.584 357.237 406.224 357.284C405.353 357.398 404.538 357.582 403.781 357.838C403.032 358.084 402.426 358.458 401.962 358.96C401.508 359.453 401.281 360.125 401.281 360.977C401.281 362.142 401.711 363.023 402.573 363.619C403.444 364.206 404.548 364.5 405.883 364.5ZM422.868 375.182C422.3 375.182 421.793 375.134 421.348 375.04C420.903 374.955 420.595 374.869 420.425 374.784L421.277 371.83C422.091 372.038 422.811 372.114 423.436 372.057C424.061 372 424.615 371.721 425.098 371.219C425.59 370.726 426.04 369.926 426.447 368.818L427.072 367.114L419.004 345.182H422.641L428.663 362.568H428.891L434.913 345.182H438.55L429.288 370.182C428.872 371.309 428.356 372.241 427.74 372.98C427.125 373.728 426.41 374.282 425.595 374.642C424.79 375.002 423.881 375.182 422.868 375.182ZM451.341 367.455C449.239 367.455 447.425 366.991 445.901 366.062C444.385 365.125 443.216 363.818 442.392 362.142C441.578 360.456 441.17 358.496 441.17 356.261C441.17 354.027 441.578 352.057 442.392 350.352C443.216 348.638 444.362 347.303 445.83 346.347C447.307 345.381 449.03 344.898 451 344.898C452.136 344.898 453.259 345.087 454.366 345.466C455.474 345.845 456.483 346.46 457.392 347.312C458.301 348.155 459.026 349.273 459.565 350.665C460.105 352.057 460.375 353.771 460.375 355.807V357.227H443.557V354.33H456.966C456.966 353.098 456.72 352 456.227 351.034C455.744 350.068 455.053 349.306 454.153 348.747C453.263 348.188 452.212 347.909 451 347.909C449.665 347.909 448.509 348.241 447.534 348.903C446.568 349.557 445.825 350.409 445.304 351.46C444.783 352.511 444.523 353.638 444.523 354.841V356.773C444.523 358.42 444.807 359.817 445.375 360.963C445.953 362.099 446.753 362.966 447.776 363.562C448.798 364.15 449.987 364.443 451.341 364.443C452.222 364.443 453.017 364.32 453.727 364.074C454.447 363.818 455.067 363.439 455.588 362.938C456.109 362.426 456.511 361.792 456.795 361.034L460.034 361.943C459.693 363.042 459.12 364.008 458.315 364.841C457.51 365.665 456.516 366.309 455.332 366.773C454.149 367.227 452.818 367.455 451.341 367.455ZM465.474 367V345.182H468.713V348.477H468.94C469.338 347.398 470.058 346.522 471.099 345.849C472.141 345.177 473.315 344.841 474.622 344.841C474.868 344.841 475.176 344.846 475.545 344.855C475.915 344.865 476.194 344.879 476.384 344.898V348.307C476.27 348.278 476.009 348.236 475.602 348.179C475.205 348.113 474.783 348.08 474.338 348.08C473.277 348.08 472.33 348.302 471.497 348.747C470.673 349.183 470.02 349.789 469.537 350.565C469.063 351.332 468.827 352.208 468.827 353.193V367H465.474ZM495.812 350.068L492.8 350.92C492.611 350.419 492.332 349.931 491.962 349.457C491.603 348.974 491.11 348.577 490.485 348.264C489.86 347.952 489.06 347.795 488.085 347.795C486.749 347.795 485.637 348.103 484.746 348.719C483.866 349.325 483.425 350.097 483.425 351.034C483.425 351.867 483.728 352.526 484.335 353.009C484.941 353.491 485.888 353.894 487.175 354.216L490.414 355.011C492.365 355.485 493.818 356.209 494.775 357.185C495.731 358.151 496.21 359.396 496.21 360.92C496.21 362.17 495.85 363.288 495.13 364.273C494.42 365.258 493.425 366.034 492.147 366.602C490.869 367.17 489.382 367.455 487.687 367.455C485.461 367.455 483.62 366.972 482.161 366.006C480.703 365.04 479.78 363.629 479.391 361.773L482.573 360.977C482.876 362.152 483.449 363.032 484.292 363.619C485.144 364.206 486.257 364.5 487.63 364.5C489.192 364.5 490.433 364.169 491.352 363.506C492.28 362.833 492.744 362.028 492.744 361.091C492.744 360.333 492.478 359.699 491.948 359.188C491.418 358.667 490.603 358.278 489.505 358.023L485.869 357.17C483.871 356.697 482.403 355.963 481.465 354.969C480.537 353.965 480.073 352.71 480.073 351.205C480.073 349.973 480.419 348.884 481.11 347.938C481.811 346.991 482.763 346.247 483.965 345.707C485.177 345.168 486.55 344.898 488.085 344.898C490.244 344.898 491.939 345.371 493.17 346.318C494.41 347.265 495.291 348.515 495.812 350.068ZM503.699 367.227C502.998 367.227 502.397 366.976 501.895 366.474C501.393 365.973 501.142 365.371 501.142 364.67C501.142 363.97 501.393 363.368 501.895 362.866C502.397 362.365 502.998 362.114 503.699 362.114C504.4 362.114 505.001 362.365 505.503 362.866C506.005 363.368 506.256 363.97 506.256 364.67C506.256 365.134 506.137 365.561 505.901 365.949C505.673 366.337 505.366 366.65 504.977 366.886C504.598 367.114 504.172 367.227 503.699 367.227ZM503.699 351.034C502.998 351.034 502.397 350.783 501.895 350.281C501.393 349.779 501.142 349.178 501.142 348.477C501.142 347.777 501.393 347.175 501.895 346.673C502.397 346.171 502.998 345.92 503.699 345.92C504.4 345.92 505.001 346.171 505.503 346.673C506.005 347.175 506.256 347.777 506.256 348.477C506.256 348.941 506.137 349.367 505.901 349.756C505.673 350.144 505.366 350.456 504.977 350.693C504.598 350.92 504.172 351.034 503.699 351.034Z" fill="black"/>
<path d="M379 428.33C378.427 428.33 377.904 428.19 377.43 427.911C376.957 427.626 376.578 427.248 376.294 426.774C376.015 426.301 375.875 425.777 375.875 425.205C375.875 424.627 376.015 424.104 376.294 423.635C376.578 423.161 376.957 422.785 377.43 422.506C377.904 422.222 378.427 422.08 379 422.08C379.578 422.08 380.101 422.222 380.57 422.506C381.043 422.785 381.42 423.161 381.699 423.635C381.983 424.104 382.125 424.627 382.125 425.205C382.125 425.777 381.983 426.301 381.699 426.774C381.42 427.248 381.043 427.626 380.57 427.911C380.101 428.19 379.578 428.33 379 428.33ZM395.761 431V416.455H400.676C401.817 416.455 402.75 416.661 403.474 417.072C404.204 417.48 404.743 418.031 405.094 418.727C405.444 419.423 405.619 420.2 405.619 421.057C405.619 421.914 405.444 422.693 405.094 423.393C404.748 424.094 404.213 424.653 403.489 425.07C402.764 425.482 401.836 425.688 400.705 425.688H397.182V424.125H400.648C401.429 424.125 402.056 423.99 402.53 423.72C403.003 423.45 403.347 423.086 403.56 422.626C403.777 422.162 403.886 421.639 403.886 421.057C403.886 420.474 403.777 419.954 403.56 419.494C403.347 419.035 403.001 418.675 402.523 418.415C402.045 418.15 401.41 418.017 400.619 418.017H397.523V431H395.761ZM409.906 416.455V431H408.229V416.455H409.906ZM416.186 431.256C415.494 431.256 414.867 431.125 414.304 430.865C413.74 430.6 413.293 430.219 412.961 429.722C412.63 429.22 412.464 428.614 412.464 427.903C412.464 427.278 412.587 426.772 412.833 426.384C413.08 425.991 413.409 425.683 413.821 425.46C414.233 425.238 414.687 425.072 415.184 424.963C415.686 424.849 416.19 424.759 416.697 424.693C417.36 424.608 417.897 424.544 418.309 424.501C418.726 424.454 419.029 424.376 419.218 424.267C419.413 424.158 419.51 423.969 419.51 423.699V423.642C419.51 422.941 419.318 422.397 418.934 422.009C418.556 421.62 417.98 421.426 417.208 421.426C416.408 421.426 415.781 421.601 415.326 421.952C414.872 422.302 414.552 422.676 414.368 423.074L412.777 422.506C413.061 421.843 413.44 421.327 413.913 420.957C414.391 420.583 414.912 420.323 415.475 420.176C416.044 420.025 416.602 419.949 417.152 419.949C417.502 419.949 417.904 419.991 418.359 420.077C418.818 420.157 419.261 420.325 419.687 420.581C420.118 420.837 420.475 421.223 420.76 421.739C421.044 422.255 421.186 422.946 421.186 423.812V431H419.51V429.523H419.424C419.311 429.759 419.121 430.013 418.856 430.283C418.591 430.553 418.238 430.782 417.798 430.972C417.358 431.161 416.82 431.256 416.186 431.256ZM416.441 429.75C417.104 429.75 417.663 429.62 418.118 429.359C418.577 429.099 418.922 428.763 419.154 428.351C419.391 427.939 419.51 427.506 419.51 427.051V425.517C419.439 425.602 419.282 425.68 419.041 425.751C418.804 425.818 418.529 425.877 418.217 425.929C417.909 425.976 417.609 426.019 417.315 426.057C417.026 426.09 416.792 426.118 416.612 426.142C416.176 426.199 415.769 426.291 415.39 426.419C415.016 426.542 414.713 426.729 414.481 426.98C414.254 427.226 414.14 427.562 414.14 427.989C414.14 428.571 414.356 429.011 414.787 429.31C415.222 429.603 415.774 429.75 416.441 429.75ZM424.934 435.091C424.65 435.091 424.397 435.067 424.174 435.02C423.951 434.977 423.798 434.935 423.712 434.892L424.138 433.415C424.546 433.519 424.906 433.557 425.218 433.528C425.531 433.5 425.808 433.36 426.049 433.109C426.295 432.863 426.52 432.463 426.724 431.909L427.036 431.057L423.002 420.091H424.82L427.832 428.784H427.945L430.957 420.091H432.775L428.144 432.591C427.936 433.154 427.678 433.621 427.37 433.99C427.062 434.364 426.705 434.641 426.298 434.821C425.895 435.001 425.441 435.091 424.934 435.091ZM439.17 431.227C438.119 431.227 437.213 430.995 436.45 430.531C435.693 430.062 435.108 429.409 434.696 428.571C434.289 427.728 434.085 426.748 434.085 425.631C434.085 424.513 434.289 423.528 434.696 422.676C435.108 421.819 435.681 421.152 436.415 420.673C437.153 420.19 438.015 419.949 439 419.949C439.568 419.949 440.129 420.044 440.683 420.233C441.237 420.422 441.741 420.73 442.196 421.156C442.651 421.578 443.013 422.136 443.283 422.832C443.553 423.528 443.688 424.385 443.688 425.403V426.114H435.278V424.665H441.983C441.983 424.049 441.86 423.5 441.614 423.017C441.372 422.534 441.027 422.153 440.577 421.874C440.132 421.594 439.606 421.455 439 421.455C438.332 421.455 437.755 421.62 437.267 421.952C436.784 422.278 436.412 422.705 436.152 423.23C435.892 423.756 435.761 424.319 435.761 424.92V425.886C435.761 426.71 435.903 427.409 436.188 427.982C436.476 428.55 436.876 428.983 437.388 429.281C437.899 429.575 438.493 429.722 439.17 429.722C439.611 429.722 440.009 429.66 440.364 429.537C440.723 429.409 441.034 429.22 441.294 428.969C441.554 428.713 441.756 428.396 441.898 428.017L443.517 428.472C443.347 429.021 443.06 429.504 442.658 429.92C442.255 430.332 441.758 430.654 441.166 430.886C440.574 431.114 439.909 431.227 439.17 431.227ZM446.237 431V420.091H447.857V421.739H447.97C448.169 421.199 448.529 420.761 449.05 420.425C449.571 420.089 450.158 419.92 450.811 419.92C450.934 419.92 451.088 419.923 451.273 419.928C451.457 419.932 451.597 419.939 451.692 419.949V421.653C451.635 421.639 451.505 421.618 451.301 421.589C451.102 421.556 450.892 421.54 450.669 421.54C450.139 421.54 449.665 421.651 449.249 421.874C448.837 422.091 448.51 422.394 448.268 422.783C448.032 423.166 447.913 423.604 447.913 424.097V431H446.237ZM464.389 416.455V431H462.627V418.301H462.542L458.991 420.659V418.869L462.627 416.455H464.389ZM379 452.33C378.427 452.33 377.904 452.19 377.43 451.911C376.957 451.626 376.578 451.248 376.294 450.774C376.015 450.301 375.875 449.777 375.875 449.205C375.875 448.627 376.015 448.104 376.294 447.635C376.578 447.161 376.957 446.785 377.43 446.506C377.904 446.222 378.427 446.08 379 446.08C379.578 446.08 380.101 446.222 380.57 446.506C381.043 446.785 381.42 447.161 381.699 447.635C381.983 448.104 382.125 448.627 382.125 449.205C382.125 449.777 381.983 450.301 381.699 450.774C381.42 451.248 381.043 451.626 380.57 451.911C380.101 452.19 379.578 452.33 379 452.33ZM395.761 455V440.455H400.676C401.817 440.455 402.75 440.661 403.474 441.072C404.204 441.48 404.743 442.031 405.094 442.727C405.444 443.423 405.619 444.2 405.619 445.057C405.619 445.914 405.444 446.693 405.094 447.393C404.748 448.094 404.213 448.653 403.489 449.07C402.764 449.482 401.836 449.688 400.705 449.688H397.182V448.125H400.648C401.429 448.125 402.056 447.99 402.53 447.72C403.003 447.45 403.347 447.086 403.56 446.626C403.777 446.162 403.886 445.639 403.886 445.057C403.886 444.474 403.777 443.954 403.56 443.494C403.347 443.035 403.001 442.675 402.523 442.415C402.045 442.15 401.41 442.017 400.619 442.017H397.523V455H395.761ZM409.906 440.455V455H408.229V440.455H409.906ZM416.186 455.256C415.494 455.256 414.867 455.125 414.304 454.865C413.74 454.6 413.293 454.219 412.961 453.722C412.63 453.22 412.464 452.614 412.464 451.903C412.464 451.278 412.587 450.772 412.833 450.384C413.08 449.991 413.409 449.683 413.821 449.46C414.233 449.238 414.687 449.072 415.184 448.963C415.686 448.849 416.19 448.759 416.697 448.693C417.36 448.608 417.897 448.544 418.309 448.501C418.726 448.454 419.029 448.376 419.218 448.267C419.413 448.158 419.51 447.969 419.51 447.699V447.642C419.51 446.941 419.318 446.397 418.934 446.009C418.556 445.62 417.98 445.426 417.208 445.426C416.408 445.426 415.781 445.601 415.326 445.952C414.872 446.302 414.552 446.676 414.368 447.074L412.777 446.506C413.061 445.843 413.44 445.327 413.913 444.957C414.391 444.583 414.912 444.323 415.475 444.176C416.044 444.025 416.602 443.949 417.152 443.949C417.502 443.949 417.904 443.991 418.359 444.077C418.818 444.157 419.261 444.325 419.687 444.581C420.118 444.837 420.475 445.223 420.76 445.739C421.044 446.255 421.186 446.946 421.186 447.812V455H419.51V453.523H419.424C419.311 453.759 419.121 454.013 418.856 454.283C418.591 454.553 418.238 454.782 417.798 454.972C417.358 455.161 416.82 455.256 416.186 455.256ZM416.441 453.75C417.104 453.75 417.663 453.62 418.118 453.359C418.577 453.099 418.922 452.763 419.154 452.351C419.391 451.939 419.51 451.506 419.51 451.051V449.517C419.439 449.602 419.282 449.68 419.041 449.751C418.804 449.818 418.529 449.877 418.217 449.929C417.909 449.976 417.609 450.019 417.315 450.057C417.026 450.09 416.792 450.118 416.612 450.142C416.176 450.199 415.769 450.291 415.39 450.419C415.016 450.542 414.713 450.729 414.481 450.98C414.254 451.226 414.14 451.562 414.14 451.989C414.14 452.571 414.356 453.011 414.787 453.31C415.222 453.603 415.774 453.75 416.441 453.75ZM424.934 459.091C424.65 459.091 424.397 459.067 424.174 459.02C423.951 458.977 423.798 458.935 423.712 458.892L424.138 457.415C424.546 457.519 424.906 457.557 425.218 457.528C425.531 457.5 425.808 457.36 426.049 457.109C426.295 456.863 426.52 456.463 426.724 455.909L427.036 455.057L423.002 444.091H424.82L427.832 452.784H427.945L430.957 444.091H432.775L428.144 456.591C427.936 457.154 427.678 457.621 427.37 457.99C427.062 458.364 426.705 458.641 426.298 458.821C425.895 459.001 425.441 459.091 424.934 459.091ZM439.17 455.227C438.119 455.227 437.213 454.995 436.45 454.531C435.693 454.062 435.108 453.409 434.696 452.571C434.289 451.728 434.085 450.748 434.085 449.631C434.085 448.513 434.289 447.528 434.696 446.676C435.108 445.819 435.681 445.152 436.415 444.673C437.153 444.19 438.015 443.949 439 443.949C439.568 443.949 440.129 444.044 440.683 444.233C441.237 444.422 441.741 444.73 442.196 445.156C442.651 445.578 443.013 446.136 443.283 446.832C443.553 447.528 443.688 448.385 443.688 449.403V450.114H435.278V448.665H441.983C441.983 448.049 441.86 447.5 441.614 447.017C441.372 446.534 441.027 446.153 440.577 445.874C440.132 445.594 439.606 445.455 439 445.455C438.332 445.455 437.755 445.62 437.267 445.952C436.784 446.278 436.412 446.705 436.152 447.23C435.892 447.756 435.761 448.319 435.761 448.92V449.886C435.761 450.71 435.903 451.409 436.188 451.982C436.476 452.55 436.876 452.983 437.388 453.281C437.899 453.575 438.493 453.722 439.17 453.722C439.611 453.722 440.009 453.66 440.364 453.537C440.723 453.409 441.034 453.22 441.294 452.969C441.554 452.713 441.756 452.396 441.898 452.017L443.517 452.472C443.347 453.021 443.06 453.504 442.658 453.92C442.255 454.332 441.758 454.654 441.166 454.886C440.574 455.114 439.909 455.227 439.17 455.227ZM446.237 455V444.091H447.857V445.739H447.97C448.169 445.199 448.529 444.761 449.05 444.425C449.571 444.089 450.158 443.92 450.811 443.92C450.934 443.92 451.088 443.923 451.273 443.928C451.457 443.932 451.597 443.939 451.692 443.949V445.653C451.635 445.639 451.505 445.618 451.301 445.589C451.102 445.556 450.892 445.54 450.669 445.54C450.139 445.54 449.665 445.651 449.249 445.874C448.837 446.091 448.51 446.394 448.268 446.783C448.032 447.166 447.913 447.604 447.913 448.097V455H446.237ZM459.275 455V453.722L464.076 448.466C464.64 447.85 465.104 447.315 465.468 446.861C465.833 446.402 466.103 445.971 466.278 445.568C466.458 445.161 466.548 444.735 466.548 444.29C466.548 443.778 466.425 443.336 466.179 442.962C465.937 442.588 465.606 442.299 465.184 442.095C464.763 441.892 464.289 441.79 463.764 441.79C463.205 441.79 462.717 441.906 462.301 442.138C461.889 442.365 461.569 442.685 461.342 443.097C461.119 443.509 461.008 443.991 461.008 444.545H459.332C459.332 443.693 459.529 442.945 459.922 442.301C460.315 441.657 460.85 441.155 461.527 440.795C462.208 440.436 462.973 440.256 463.821 440.256C464.673 440.256 465.428 440.436 466.086 440.795C466.744 441.155 467.261 441.641 467.635 442.251C468.009 442.862 468.196 443.542 468.196 444.29C468.196 444.825 468.099 445.348 467.904 445.859C467.715 446.366 467.384 446.932 466.91 447.557C466.441 448.177 465.79 448.935 464.957 449.83L461.69 453.324V453.438H468.451V455H459.275ZM379 476.33C378.427 476.33 377.904 476.19 377.43 475.911C376.957 475.626 376.578 475.248 376.294 474.774C376.015 474.301 375.875 473.777 375.875 473.205C375.875 472.627 376.015 472.104 376.294 471.635C376.578 471.161 376.957 470.785 377.43 470.506C377.904 470.222 378.427 470.08 379 470.08C379.578 470.08 380.101 470.222 380.57 470.506C381.043 470.785 381.42 471.161 381.699 471.635C381.983 472.104 382.125 472.627 382.125 473.205C382.125 473.777 381.983 474.301 381.699 474.774C381.42 475.248 381.043 475.626 380.57 475.911C380.101 476.19 379.578 476.33 379 476.33ZM395.761 479V464.455H400.676C401.817 464.455 402.75 464.661 403.474 465.072C404.204 465.48 404.743 466.031 405.094 466.727C405.444 467.423 405.619 468.2 405.619 469.057C405.619 469.914 405.444 470.693 405.094 471.393C404.748 472.094 404.213 472.653 403.489 473.07C402.764 473.482 401.836 473.688 400.705 473.688H397.182V472.125H400.648C401.429 472.125 402.056 471.99 402.53 471.72C403.003 471.45 403.347 471.086 403.56 470.626C403.777 470.162 403.886 469.639 403.886 469.057C403.886 468.474 403.777 467.954 403.56 467.494C403.347 467.035 403.001 466.675 402.523 466.415C402.045 466.15 401.41 466.017 400.619 466.017H397.523V479H395.761ZM409.906 464.455V479H408.229V464.455H409.906ZM416.186 479.256C415.494 479.256 414.867 479.125 414.304 478.865C413.74 478.6 413.293 478.219 412.961 477.722C412.63 477.22 412.464 476.614 412.464 475.903C412.464 475.278 412.587 474.772 412.833 474.384C413.08 473.991 413.409 473.683 413.821 473.46C414.233 473.238 414.687 473.072 415.184 472.963C415.686 472.849 416.19 472.759 416.697 472.693C417.36 472.608 417.897 472.544 418.309 472.501C418.726 472.454 419.029 472.376 419.218 472.267C419.413 472.158 419.51 471.969 419.51 471.699V471.642C419.51 470.941 419.318 470.397 418.934 470.009C418.556 469.62 417.98 469.426 417.208 469.426C416.408 469.426 415.781 469.601 415.326 469.952C414.872 470.302 414.552 470.676 414.368 471.074L412.777 470.506C413.061 469.843 413.44 469.327 413.913 468.957C414.391 468.583 414.912 468.323 415.475 468.176C416.044 468.025 416.602 467.949 417.152 467.949C417.502 467.949 417.904 467.991 418.359 468.077C418.818 468.157 419.261 468.325 419.687 468.581C420.118 468.837 420.475 469.223 420.76 469.739C421.044 470.255 421.186 470.946 421.186 471.812V479H419.51V477.523H419.424C419.311 477.759 419.121 478.013 418.856 478.283C418.591 478.553 418.238 478.782 417.798 478.972C417.358 479.161 416.82 479.256 416.186 479.256ZM416.441 477.75C417.104 477.75 417.663 477.62 418.118 477.359C418.577 477.099 418.922 476.763 419.154 476.351C419.391 475.939 419.51 475.506 419.51 475.051V473.517C419.439 473.602 419.282 473.68 419.041 473.751C418.804 473.818 418.529 473.877 418.217 473.929C417.909 473.976 417.609 474.019 417.315 474.057C417.026 474.09 416.792 474.118 416.612 474.142C416.176 474.199 415.769 474.291 415.39 474.419C415.016 474.542 414.713 474.729 414.481 474.98C414.254 475.226 414.14 475.562 414.14 475.989C414.14 476.571 414.356 477.011 414.787 477.31C415.222 477.603 415.774 477.75 416.441 477.75ZM424.934 483.091C424.65 483.091 424.397 483.067 424.174 483.02C423.951 482.977 423.798 482.935 423.712 482.892L424.138 481.415C424.546 481.519 424.906 481.557 425.218 481.528C425.531 481.5 425.808 481.36 426.049 481.109C426.295 480.863 426.52 480.463 426.724 479.909L427.036 479.057L423.002 468.091H424.82L427.832 476.784H427.945L430.957 468.091H432.775L428.144 480.591C427.936 481.154 427.678 481.621 427.37 481.99C427.062 482.364 426.705 482.641 426.298 482.821C425.895 483.001 425.441 483.091 424.934 483.091ZM439.17 479.227C438.119 479.227 437.213 478.995 436.45 478.531C435.693 478.062 435.108 477.409 434.696 476.571C434.289 475.728 434.085 474.748 434.085 473.631C434.085 472.513 434.289 471.528 434.696 470.676C435.108 469.819 435.681 469.152 436.415 468.673C437.153 468.19 438.015 467.949 439 467.949C439.568 467.949 440.129 468.044 440.683 468.233C441.237 468.422 441.741 468.73 442.196 469.156C442.651 469.578 443.013 470.136 443.283 470.832C443.553 471.528 443.688 472.385 443.688 473.403V474.114H435.278V472.665H441.983C441.983 472.049 441.86 471.5 441.614 471.017C441.372 470.534 441.027 470.153 440.577 469.874C440.132 469.594 439.606 469.455 439 469.455C438.332 469.455 437.755 469.62 437.267 469.952C436.784 470.278 436.412 470.705 436.152 471.23C435.892 471.756 435.761 472.319 435.761 472.92V473.886C435.761 474.71 435.903 475.409 436.188 475.982C436.476 476.55 436.876 476.983 437.388 477.281C437.899 477.575 438.493 477.722 439.17 477.722C439.611 477.722 440.009 477.66 440.364 477.537C440.723 477.409 441.034 477.22 441.294 476.969C441.554 476.713 441.756 476.396 441.898 476.017L443.517 476.472C443.347 477.021 443.06 477.504 442.658 477.92C442.255 478.332 441.758 478.654 441.166 478.886C440.574 479.114 439.909 479.227 439.17 479.227ZM446.237 479V468.091H447.857V469.739H447.97C448.169 469.199 448.529 468.761 449.05 468.425C449.571 468.089 450.158 467.92 450.811 467.92C450.934 467.92 451.088 467.923 451.273 467.928C451.457 467.932 451.597 467.939 451.692 467.949V469.653C451.635 469.639 451.505 469.618 451.301 469.589C451.102 469.556 450.892 469.54 450.669 469.54C450.139 469.54 449.665 469.651 449.249 469.874C448.837 470.091 448.51 470.394 448.268 470.783C448.032 471.166 447.913 471.604 447.913 472.097V479H446.237ZM464.19 479.199C463.252 479.199 462.417 479.038 461.683 478.716C460.954 478.394 460.374 477.946 459.943 477.374C459.517 476.796 459.285 476.126 459.247 475.364H461.037C461.074 475.832 461.235 476.237 461.52 476.578C461.804 476.914 462.175 477.175 462.635 477.359C463.094 477.544 463.603 477.636 464.162 477.636C464.787 477.636 465.341 477.527 465.824 477.31C466.306 477.092 466.685 476.789 466.96 476.401C467.234 476.012 467.372 475.562 467.372 475.051C467.372 474.516 467.239 474.045 466.974 473.638C466.709 473.226 466.321 472.904 465.809 472.672C465.298 472.44 464.673 472.324 463.934 472.324H462.77V470.761H463.934C464.512 470.761 465.019 470.657 465.454 470.449C465.895 470.241 466.238 469.947 466.484 469.568C466.735 469.189 466.86 468.744 466.86 468.233C466.86 467.741 466.752 467.312 466.534 466.947C466.316 466.583 466.008 466.299 465.61 466.095C465.217 465.892 464.753 465.79 464.218 465.79C463.717 465.79 463.243 465.882 462.798 466.067C462.358 466.247 461.998 466.509 461.718 466.855C461.439 467.196 461.288 467.608 461.264 468.091H459.559C459.588 467.329 459.817 466.661 460.248 466.088C460.679 465.51 461.243 465.061 461.939 464.739C462.639 464.417 463.409 464.256 464.247 464.256C465.146 464.256 465.918 464.438 466.562 464.803C467.206 465.162 467.701 465.638 468.047 466.23C468.392 466.822 468.565 467.461 468.565 468.148C468.565 468.967 468.35 469.665 467.919 470.243C467.493 470.821 466.913 471.221 466.179 471.443V471.557C467.097 471.708 467.815 472.099 468.331 472.729C468.847 473.354 469.105 474.128 469.105 475.051C469.105 475.842 468.889 476.552 468.458 477.182C468.032 477.807 467.45 478.299 466.711 478.659C465.973 479.019 465.132 479.199 464.19 479.199ZM379 500.33C378.427 500.33 377.904 500.19 377.43 499.911C376.957 499.626 376.578 499.248 376.294 498.774C376.015 498.301 375.875 497.777 375.875 497.205C375.875 496.627 376.015 496.104 376.294 495.635C376.578 495.161 376.957 494.785 377.43 494.506C377.904 494.222 378.427 494.08 379 494.08C379.578 494.08 380.101 494.222 380.57 494.506C381.043 494.785 381.42 495.161 381.699 495.635C381.983 496.104 382.125 496.627 382.125 497.205C382.125 497.777 381.983 498.301 381.699 498.774C381.42 499.248 381.043 499.626 380.57 499.911C380.101 500.19 379.578 500.33 379 500.33ZM395.761 503V488.455H400.676C401.817 488.455 402.75 488.661 403.474 489.072C404.204 489.48 404.743 490.031 405.094 490.727C405.444 491.423 405.619 492.2 405.619 493.057C405.619 493.914 405.444 494.693 405.094 495.393C404.748 496.094 404.213 496.653 403.489 497.07C402.764 497.482 401.836 497.688 400.705 497.688H397.182V496.125H400.648C401.429 496.125 402.056 495.99 402.53 495.72C403.003 495.45 403.347 495.086 403.56 494.626C403.777 494.162 403.886 493.639 403.886 493.057C403.886 492.474 403.777 491.954 403.56 491.494C403.347 491.035 403.001 490.675 402.523 490.415C402.045 490.15 401.41 490.017 400.619 490.017H397.523V503H395.761ZM409.906 488.455V503H408.229V488.455H409.906ZM416.186 503.256C415.494 503.256 414.867 503.125 414.304 502.865C413.74 502.6 413.293 502.219 412.961 501.722C412.63 501.22 412.464 500.614 412.464 499.903C412.464 499.278 412.587 498.772 412.833 498.384C413.08 497.991 413.409 497.683 413.821 497.46C414.233 497.238 414.687 497.072 415.184 496.963C415.686 496.849 416.19 496.759 416.697 496.693C417.36 496.608 417.897 496.544 418.309 496.501C418.726 496.454 419.029 496.376 419.218 496.267C419.413 496.158 419.51 495.969 419.51 495.699V495.642C419.51 494.941 419.318 494.397 418.934 494.009C418.556 493.62 417.98 493.426 417.208 493.426C416.408 493.426 415.781 493.601 415.326 493.952C414.872 494.302 414.552 494.676 414.368 495.074L412.777 494.506C413.061 493.843 413.44 493.327 413.913 492.957C414.391 492.583 414.912 492.323 415.475 492.176C416.044 492.025 416.602 491.949 417.152 491.949C417.502 491.949 417.904 491.991 418.359 492.077C418.818 492.157 419.261 492.325 419.687 492.581C420.118 492.837 420.475 493.223 420.76 493.739C421.044 494.255 421.186 494.946 421.186 495.812V503H419.51V501.523H419.424C419.311 501.759 419.121 502.013 418.856 502.283C418.591 502.553 418.238 502.782 417.798 502.972C417.358 503.161 416.82 503.256 416.186 503.256ZM416.441 501.75C417.104 501.75 417.663 501.62 418.118 501.359C418.577 501.099 418.922 500.763 419.154 500.351C419.391 499.939 419.51 499.506 419.51 499.051V497.517C419.439 497.602 419.282 497.68 419.041 497.751C418.804 497.818 418.529 497.877 418.217 497.929C417.909 497.976 417.609 498.019 417.315 498.057C417.026 498.09 416.792 498.118 416.612 498.142C416.176 498.199 415.769 498.291 415.39 498.419C415.016 498.542 414.713 498.729 414.481 498.98C414.254 499.226 414.14 499.562 414.14 499.989C414.14 500.571 414.356 501.011 414.787 501.31C415.222 501.603 415.774 501.75 416.441 501.75ZM424.934 507.091C424.65 507.091 424.397 507.067 424.174 507.02C423.951 506.977 423.798 506.935 423.712 506.892L424.138 505.415C424.546 505.519 424.906 505.557 425.218 505.528C425.531 505.5 425.808 505.36 426.049 505.109C426.295 504.863 426.52 504.463 426.724 503.909L427.036 503.057L423.002 492.091H424.82L427.832 500.784H427.945L430.957 492.091H432.775L428.144 504.591C427.936 505.154 427.678 505.621 427.37 505.99C427.062 506.364 426.705 506.641 426.298 506.821C425.895 507.001 425.441 507.091 424.934 507.091ZM439.17 503.227C438.119 503.227 437.213 502.995 436.45 502.531C435.693 502.062 435.108 501.409 434.696 500.571C434.289 499.728 434.085 498.748 434.085 497.631C434.085 496.513 434.289 495.528 434.696 494.676C435.108 493.819 435.681 493.152 436.415 492.673C437.153 492.19 438.015 491.949 439 491.949C439.568 491.949 440.129 492.044 440.683 492.233C441.237 492.422 441.741 492.73 442.196 493.156C442.651 493.578 443.013 494.136 443.283 494.832C443.553 495.528 443.688 496.385 443.688 497.403V498.114H435.278V496.665H441.983C441.983 496.049 441.86 495.5 441.614 495.017C441.372 494.534 441.027 494.153 440.577 493.874C440.132 493.594 439.606 493.455 439 493.455C438.332 493.455 437.755 493.62 437.267 493.952C436.784 494.278 436.412 494.705 436.152 495.23C435.892 495.756 435.761 496.319 435.761 496.92V497.886C435.761 498.71 435.903 499.409 436.188 499.982C436.476 500.55 436.876 500.983 437.388 501.281C437.899 501.575 438.493 501.722 439.17 501.722C439.611 501.722 440.009 501.66 440.364 501.537C440.723 501.409 441.034 501.22 441.294 500.969C441.554 500.713 441.756 500.396 441.898 500.017L443.517 500.472C443.347 501.021 443.06 501.504 442.658 501.92C442.255 502.332 441.758 502.654 441.166 502.886C440.574 503.114 439.909 503.227 439.17 503.227ZM446.237 503V492.091H447.857V493.739H447.97C448.169 493.199 448.529 492.761 449.05 492.425C449.571 492.089 450.158 491.92 450.811 491.92C450.934 491.92 451.088 491.923 451.273 491.928C451.457 491.932 451.597 491.939 451.692 491.949V493.653C451.635 493.639 451.505 493.618 451.301 493.589C451.102 493.556 450.892 493.54 450.669 493.54C450.139 493.54 449.665 493.651 449.249 493.874C448.837 494.091 448.51 494.394 448.268 494.783C448.032 495.166 447.913 495.604 447.913 496.097V503H446.237ZM458.934 500.017V498.568L465.326 488.455H466.377V490.699H465.667L460.838 498.341V498.455H469.446V500.017H458.934ZM465.781 503V499.577V498.902V488.455H467.457V503H465.781ZM379 524.33C378.427 524.33 377.904 524.19 377.43 523.911C376.957 523.626 376.578 523.248 376.294 522.774C376.015 522.301 375.875 521.777 375.875 521.205C375.875 520.627 376.015 520.104 376.294 519.635C376.578 519.161 376.957 518.785 377.43 518.506C377.904 518.222 378.427 518.08 379 518.08C379.578 518.08 380.101 518.222 380.57 518.506C381.043 518.785 381.42 519.161 381.699 519.635C381.983 520.104 382.125 520.627 382.125 521.205C382.125 521.777 381.983 522.301 381.699 522.774C381.42 523.248 381.043 523.626 380.57 523.911C380.101 524.19 379.578 524.33 379 524.33ZM396.756 527.114C396.405 527.114 396.105 526.988 395.854 526.737C395.603 526.486 395.477 526.186 395.477 525.835C395.477 525.485 395.603 525.184 395.854 524.933C396.105 524.682 396.405 524.557 396.756 524.557C397.106 524.557 397.407 524.682 397.658 524.933C397.909 525.184 398.034 525.485 398.034 525.835C398.034 526.067 397.975 526.28 397.857 526.474C397.743 526.669 397.589 526.825 397.395 526.943C397.205 527.057 396.992 527.114 396.756 527.114ZM402.263 527.114C401.913 527.114 401.612 526.988 401.362 526.737C401.111 526.486 400.985 526.186 400.985 525.835C400.985 525.485 401.111 525.184 401.362 524.933C401.612 524.682 401.913 524.557 402.263 524.557C402.614 524.557 402.915 524.682 403.165 524.933C403.416 525.184 403.542 525.485 403.542 525.835C403.542 526.067 403.483 526.28 403.364 526.474C403.251 526.669 403.097 526.825 402.903 526.943C402.713 527.057 402.5 527.114 402.263 527.114ZM407.771 527.114C407.421 527.114 407.12 526.988 406.869 526.737C406.618 526.486 406.493 526.186 406.493 525.835C406.493 525.485 406.618 525.184 406.869 524.933C407.12 524.682 407.421 524.557 407.771 524.557C408.122 524.557 408.422 524.682 408.673 524.933C408.924 525.184 409.05 525.485 409.05 525.835C409.05 526.067 408.991 526.28 408.872 526.474C408.759 526.669 408.605 526.825 408.411 526.943C408.221 527.057 408.008 527.114 407.771 527.114Z" fill="black"/>
<rect x="523" y="321" width="154" height="63" fill="#5289DB"/>
<rect x="358" y="650" width="287" height="66" fill="#5289DB"/>
<rect x="523" y="231" width="154" height="63" fill="white"/>
<path d="M594.199 267.42V265.682L601.869 253.545H603.13V256.239H602.278L596.483 265.409V265.545H606.812V267.42H594.199ZM602.414 271V266.892V266.082V253.545H604.426V271H602.414Z" fill="black"/>
<path d="M541.552 361H539.336L545.745 343.545H547.927L554.336 361H552.12L546.904 346.307H546.768L541.552 361ZM542.37 354.182H551.302V356.057H542.37V354.182ZM561.725 361.273C560.635 361.273 559.672 360.997 558.836 360.446C558.001 359.889 557.348 359.105 556.876 358.094C556.404 357.077 556.169 355.875 556.169 354.489C556.169 353.114 556.404 351.92 556.876 350.909C557.348 349.898 558.004 349.116 558.845 348.565C559.686 348.014 560.657 347.739 561.76 347.739C562.612 347.739 563.285 347.881 563.779 348.165C564.279 348.443 564.66 348.761 564.922 349.119C565.189 349.472 565.396 349.761 565.544 349.989H565.714V343.545H567.725V361H565.782V358.989H565.544C565.396 359.227 565.186 359.528 564.913 359.892C564.64 360.25 564.251 360.571 563.745 360.855C563.24 361.134 562.566 361.273 561.725 361.273ZM561.998 359.466C562.805 359.466 563.487 359.256 564.044 358.835C564.6 358.409 565.024 357.821 565.314 357.071C565.603 356.315 565.748 355.443 565.748 354.455C565.748 353.477 565.606 352.622 565.322 351.889C565.038 351.151 564.618 350.577 564.061 350.168C563.504 349.753 562.816 349.545 561.998 349.545C561.146 349.545 560.436 349.764 559.868 350.202C559.305 350.634 558.882 351.222 558.598 351.966C558.319 352.705 558.18 353.534 558.18 354.455C558.18 355.386 558.322 356.233 558.606 356.994C558.896 357.75 559.322 358.352 559.885 358.801C560.453 359.244 561.157 359.466 561.998 359.466ZM576.632 361.273C575.541 361.273 574.578 360.997 573.743 360.446C572.907 359.889 572.254 359.105 571.782 358.094C571.311 357.077 571.075 355.875 571.075 354.489C571.075 353.114 571.311 351.92 571.782 350.909C572.254 349.898 572.91 349.116 573.751 348.565C574.592 348.014 575.564 347.739 576.666 347.739C577.518 347.739 578.191 347.881 578.686 348.165C579.186 348.443 579.566 348.761 579.828 349.119C580.095 349.472 580.302 349.761 580.45 349.989H580.62V343.545H582.632V361H580.689V358.989H580.45C580.302 359.227 580.092 359.528 579.819 359.892C579.547 360.25 579.157 360.571 578.652 360.855C578.146 361.134 577.473 361.273 576.632 361.273ZM576.904 359.466C577.711 359.466 578.393 359.256 578.95 358.835C579.507 358.409 579.93 357.821 580.22 357.071C580.51 356.315 580.654 355.443 580.654 354.455C580.654 353.477 580.512 352.622 580.228 351.889C579.944 351.151 579.524 350.577 578.967 350.168C578.41 349.753 577.723 349.545 576.904 349.545C576.052 349.545 575.342 349.764 574.774 350.202C574.211 350.634 573.788 351.222 573.504 351.966C573.225 352.705 573.086 353.534 573.086 354.455C573.086 355.386 573.228 356.233 573.512 356.994C573.802 357.75 574.228 358.352 574.791 358.801C575.359 359.244 576.064 359.466 576.904 359.466ZM593.618 361V343.545H599.515C600.885 343.545 602.004 343.793 602.873 344.287C603.748 344.776 604.396 345.438 604.816 346.273C605.237 347.108 605.447 348.04 605.447 349.068C605.447 350.097 605.237 351.031 604.816 351.872C604.402 352.713 603.76 353.384 602.89 353.884C602.021 354.378 600.907 354.625 599.549 354.625H595.322V352.75H599.481C600.419 352.75 601.172 352.588 601.74 352.264C602.308 351.94 602.72 351.503 602.975 350.952C603.237 350.395 603.368 349.767 603.368 349.068C603.368 348.369 603.237 347.744 602.975 347.193C602.72 346.642 602.305 346.21 601.731 345.898C601.157 345.58 600.396 345.42 599.447 345.42H595.731V361H593.618ZM610.591 343.545V361H608.579V343.545H610.591ZM618.127 361.307C617.297 361.307 616.544 361.151 615.868 360.838C615.192 360.52 614.655 360.062 614.257 359.466C613.86 358.864 613.661 358.136 613.661 357.284C613.661 356.534 613.809 355.926 614.104 355.46C614.4 354.989 614.794 354.619 615.289 354.352C615.783 354.085 616.328 353.886 616.925 353.756C617.527 353.619 618.132 353.511 618.74 353.432C619.536 353.33 620.181 353.253 620.675 353.202C621.175 353.145 621.539 353.051 621.766 352.92C621.999 352.79 622.115 352.562 622.115 352.239V352.17C622.115 351.33 621.885 350.676 621.425 350.21C620.971 349.744 620.28 349.511 619.354 349.511C618.394 349.511 617.641 349.722 617.096 350.142C616.55 350.562 616.167 351.011 615.945 351.489L614.036 350.807C614.377 350.011 614.831 349.392 615.4 348.949C615.973 348.5 616.598 348.187 617.275 348.011C617.956 347.83 618.627 347.739 619.286 347.739C619.706 347.739 620.189 347.79 620.735 347.892C621.286 347.989 621.817 348.19 622.328 348.497C622.846 348.804 623.275 349.267 623.615 349.886C623.956 350.506 624.127 351.335 624.127 352.375V361H622.115V359.227H622.013C621.877 359.511 621.65 359.815 621.331 360.139C621.013 360.463 620.59 360.739 620.061 360.966C619.533 361.193 618.888 361.307 618.127 361.307ZM618.434 359.5C619.229 359.5 619.9 359.344 620.445 359.031C620.996 358.719 621.411 358.315 621.689 357.821C621.973 357.327 622.115 356.807 622.115 356.261V354.42C622.03 354.523 621.843 354.616 621.553 354.702C621.269 354.781 620.939 354.852 620.564 354.915C620.195 354.972 619.834 355.023 619.482 355.068C619.135 355.108 618.854 355.142 618.638 355.17C618.115 355.239 617.627 355.349 617.172 355.503C616.723 355.651 616.36 355.875 616.081 356.176C615.809 356.472 615.672 356.875 615.672 357.386C615.672 358.085 615.931 358.614 616.448 358.972C616.971 359.324 617.632 359.5 618.434 359.5ZM628.625 365.909C628.284 365.909 627.98 365.881 627.713 365.824C627.446 365.773 627.261 365.722 627.159 365.67L627.67 363.898C628.159 364.023 628.591 364.068 628.966 364.034C629.341 364 629.673 363.832 629.963 363.531C630.258 363.236 630.528 362.756 630.772 362.091L631.147 361.068L626.306 347.909H628.488L632.102 358.341H632.238L635.852 347.909H638.034L632.477 362.909C632.227 363.585 631.917 364.145 631.548 364.588C631.179 365.037 630.75 365.369 630.261 365.585C629.778 365.801 629.233 365.909 628.625 365.909ZM645.708 361.273C644.447 361.273 643.359 360.994 642.444 360.438C641.535 359.875 640.833 359.091 640.339 358.085C639.85 357.074 639.606 355.898 639.606 354.557C639.606 353.216 639.85 352.034 640.339 351.011C640.833 349.983 641.521 349.182 642.402 348.608C643.288 348.028 644.322 347.739 645.504 347.739C646.186 347.739 646.859 347.852 647.524 348.08C648.189 348.307 648.794 348.676 649.339 349.188C649.885 349.693 650.319 350.364 650.643 351.199C650.967 352.034 651.129 353.062 651.129 354.284V355.136H641.038V353.398H649.083C649.083 352.659 648.936 352 648.64 351.42C648.35 350.841 647.936 350.384 647.396 350.048C646.862 349.713 646.231 349.545 645.504 349.545C644.703 349.545 644.01 349.744 643.424 350.142C642.845 350.534 642.399 351.045 642.086 351.676C641.774 352.307 641.618 352.983 641.618 353.705V354.864C641.618 355.852 641.788 356.69 642.129 357.378C642.475 358.06 642.956 358.58 643.569 358.938C644.183 359.29 644.896 359.466 645.708 359.466C646.237 359.466 646.714 359.392 647.14 359.244C647.572 359.091 647.944 358.864 648.257 358.562C648.569 358.256 648.811 357.875 648.981 357.42L650.924 357.966C650.72 358.625 650.376 359.205 649.893 359.705C649.41 360.199 648.814 360.585 648.103 360.864C647.393 361.136 646.595 361.273 645.708 361.273ZM654.189 361V347.909H656.132V349.886H656.268C656.507 349.239 656.939 348.713 657.564 348.31C658.189 347.906 658.893 347.705 659.677 347.705C659.825 347.705 660.01 347.707 660.231 347.713C660.453 347.719 660.62 347.727 660.734 347.739V349.784C660.666 349.767 660.51 349.741 660.265 349.707C660.027 349.668 659.774 349.648 659.507 349.648C658.87 349.648 658.302 349.781 657.802 350.048C657.308 350.31 656.916 350.673 656.626 351.139C656.342 351.599 656.2 352.125 656.2 352.716V361H654.189Z" fill="black"/>
<path d="M413.854 677.909C413.752 677.045 413.337 676.375 412.61 675.898C411.883 675.42 410.991 675.182 409.934 675.182C409.161 675.182 408.485 675.307 407.906 675.557C407.332 675.807 406.883 676.151 406.559 676.588C406.241 677.026 406.082 677.523 406.082 678.08C406.082 678.545 406.192 678.946 406.414 679.281C406.641 679.611 406.931 679.886 407.283 680.108C407.636 680.324 408.005 680.503 408.391 680.645C408.778 680.781 409.133 680.892 409.457 680.977L411.229 681.455C411.684 681.574 412.19 681.739 412.746 681.949C413.309 682.159 413.846 682.446 414.357 682.81C414.874 683.168 415.3 683.628 415.636 684.19C415.971 684.753 416.138 685.443 416.138 686.261C416.138 687.205 415.891 688.057 415.397 688.818C414.908 689.58 414.192 690.185 413.249 690.634C412.312 691.082 411.173 691.307 409.832 691.307C408.582 691.307 407.499 691.105 406.585 690.702C405.675 690.298 404.96 689.736 404.437 689.014C403.92 688.293 403.627 687.455 403.559 686.5H405.741C405.798 687.159 406.019 687.705 406.406 688.136C406.798 688.562 407.292 688.881 407.888 689.091C408.491 689.295 409.138 689.398 409.832 689.398C410.638 689.398 411.363 689.267 412.005 689.006C412.647 688.739 413.156 688.369 413.531 687.898C413.906 687.42 414.093 686.864 414.093 686.227C414.093 685.648 413.931 685.176 413.607 684.812C413.283 684.449 412.857 684.153 412.329 683.926C411.8 683.699 411.229 683.5 410.616 683.33L408.468 682.716C407.104 682.324 406.025 681.764 405.229 681.037C404.434 680.31 404.036 679.358 404.036 678.182C404.036 677.205 404.3 676.352 404.829 675.625C405.363 674.892 406.079 674.324 406.977 673.92C407.88 673.511 408.888 673.307 410.002 673.307C411.127 673.307 412.127 673.509 413.002 673.912C413.877 674.31 414.57 674.855 415.082 675.548C415.599 676.241 415.871 677.028 415.9 677.909H413.854ZM425.034 677.909V679.614H418.25V677.909H425.034ZM420.227 674.773H422.239V687.25C422.239 687.818 422.321 688.244 422.486 688.528C422.656 688.807 422.872 688.994 423.134 689.091C423.401 689.182 423.682 689.227 423.977 689.227C424.199 689.227 424.381 689.216 424.523 689.193C424.665 689.165 424.778 689.142 424.864 689.125L425.273 690.932C425.136 690.983 424.946 691.034 424.702 691.085C424.457 691.142 424.148 691.17 423.773 691.17C423.205 691.17 422.648 691.048 422.102 690.804C421.563 690.56 421.114 690.188 420.756 689.688C420.403 689.188 420.227 688.557 420.227 687.795V674.773ZM431.912 691.307C431.082 691.307 430.33 691.151 429.653 690.838C428.977 690.52 428.44 690.062 428.043 689.466C427.645 688.864 427.446 688.136 427.446 687.284C427.446 686.534 427.594 685.926 427.889 685.46C428.185 684.989 428.58 684.619 429.074 684.352C429.568 684.085 430.114 683.886 430.71 683.756C431.313 683.619 431.918 683.511 432.526 683.432C433.321 683.33 433.966 683.253 434.46 683.202C434.96 683.145 435.324 683.051 435.551 682.92C435.784 682.79 435.901 682.562 435.901 682.239V682.17C435.901 681.33 435.67 680.676 435.21 680.21C434.756 679.744 434.065 679.511 433.139 679.511C432.179 679.511 431.426 679.722 430.881 680.142C430.335 680.562 429.952 681.011 429.73 681.489L427.821 680.807C428.162 680.011 428.616 679.392 429.185 678.949C429.759 678.5 430.384 678.187 431.06 678.011C431.741 677.83 432.412 677.739 433.071 677.739C433.491 677.739 433.974 677.79 434.52 677.892C435.071 677.989 435.602 678.19 436.114 678.497C436.631 678.804 437.06 679.267 437.401 679.886C437.741 680.506 437.912 681.335 437.912 682.375V691H435.901V689.227H435.798C435.662 689.511 435.435 689.815 435.116 690.139C434.798 690.463 434.375 690.739 433.847 690.966C433.318 691.193 432.673 691.307 431.912 691.307ZM432.219 689.5C433.014 689.5 433.685 689.344 434.23 689.031C434.781 688.719 435.196 688.315 435.474 687.821C435.759 687.327 435.901 686.807 435.901 686.261V684.42C435.815 684.523 435.628 684.616 435.338 684.702C435.054 684.781 434.724 684.852 434.349 684.915C433.98 684.972 433.619 685.023 433.267 685.068C432.92 685.108 432.639 685.142 432.423 685.17C431.901 685.239 431.412 685.349 430.957 685.503C430.509 685.651 430.145 685.875 429.866 686.176C429.594 686.472 429.457 686.875 429.457 687.386C429.457 688.085 429.716 688.614 430.233 688.972C430.756 689.324 431.418 689.5 432.219 689.5ZM441.583 691V677.909H443.526V679.886H443.663C443.901 679.239 444.333 678.713 444.958 678.31C445.583 677.906 446.288 677.705 447.072 677.705C447.219 677.705 447.404 677.707 447.626 677.713C447.847 677.719 448.015 677.727 448.129 677.739V679.784C448.06 679.767 447.904 679.741 447.66 679.707C447.421 679.668 447.168 679.648 446.901 679.648C446.265 679.648 445.697 679.781 445.197 680.048C444.702 680.31 444.31 680.673 444.021 681.139C443.737 681.599 443.594 682.125 443.594 682.716V691H441.583ZM457.026 677.909V679.614H450.242V677.909H457.026ZM452.219 674.773H454.231V687.25C454.231 687.818 454.313 688.244 454.478 688.528C454.648 688.807 454.864 688.994 455.126 689.091C455.393 689.182 455.674 689.227 455.969 689.227C456.191 689.227 456.373 689.216 456.515 689.193C456.657 689.165 456.771 689.142 456.856 689.125L457.265 690.932C457.129 690.983 456.938 691.034 456.694 691.085C456.45 691.142 456.14 691.17 455.765 691.17C455.197 691.17 454.64 691.048 454.094 690.804C453.555 690.56 453.106 690.188 452.748 689.688C452.396 689.188 452.219 688.557 452.219 687.795V674.773ZM466.12 675.42V673.545H479.211V675.42H473.722V691H471.609V675.42H466.12ZM485.62 691.273C484.438 691.273 483.401 690.991 482.509 690.429C481.623 689.866 480.93 689.08 480.43 688.068C479.935 687.057 479.688 685.875 479.688 684.523C479.688 683.159 479.935 681.969 480.43 680.952C480.93 679.935 481.623 679.145 482.509 678.582C483.401 678.02 484.438 677.739 485.62 677.739C486.802 677.739 487.836 678.02 488.722 678.582C489.614 679.145 490.308 679.935 490.802 680.952C491.302 681.969 491.552 683.159 491.552 684.523C491.552 685.875 491.302 687.057 490.802 688.068C490.308 689.08 489.614 689.866 488.722 690.429C487.836 690.991 486.802 691.273 485.62 691.273ZM485.62 689.466C486.518 689.466 487.256 689.236 487.836 688.776C488.415 688.315 488.844 687.71 489.123 686.96C489.401 686.21 489.54 685.398 489.54 684.523C489.54 683.648 489.401 682.832 489.123 682.077C488.844 681.321 488.415 680.71 487.836 680.244C487.256 679.778 486.518 679.545 485.62 679.545C484.722 679.545 483.984 679.778 483.404 680.244C482.825 680.71 482.396 681.321 482.117 682.077C481.839 682.832 481.7 683.648 481.7 684.523C481.7 685.398 481.839 686.21 482.117 686.96C482.396 687.71 482.825 688.315 483.404 688.776C483.984 689.236 484.722 689.466 485.62 689.466ZM502.872 685.648V677.909H504.884V691H502.872V688.784H502.736C502.429 689.449 501.952 690.014 501.304 690.48C500.656 690.94 499.838 691.17 498.849 691.17C498.031 691.17 497.304 690.991 496.668 690.634C496.031 690.27 495.531 689.724 495.168 688.997C494.804 688.264 494.622 687.341 494.622 686.227V677.909H496.634V686.091C496.634 687.045 496.901 687.807 497.435 688.375C497.974 688.943 498.662 689.227 499.497 689.227C499.997 689.227 500.506 689.099 501.023 688.844C501.545 688.588 501.983 688.196 502.335 687.668C502.693 687.139 502.872 686.466 502.872 685.648ZM508.567 691V677.909H510.511V679.886H510.647C510.886 679.239 511.317 678.713 511.942 678.31C512.567 677.906 513.272 677.705 514.056 677.705C514.204 677.705 514.388 677.707 514.61 677.713C514.832 677.719 514.999 677.727 515.113 677.739V679.784C515.045 679.767 514.888 679.741 514.644 679.707C514.406 679.668 514.153 679.648 513.886 679.648C513.249 679.648 512.681 679.781 512.181 680.048C511.687 680.31 511.295 680.673 511.005 681.139C510.721 681.599 510.579 682.125 510.579 682.716V691H508.567ZM519.509 683.125V691H517.497V677.909H519.44V679.955H519.611C519.918 679.29 520.384 678.756 521.009 678.352C521.634 677.943 522.44 677.739 523.429 677.739C524.315 677.739 525.091 677.92 525.756 678.284C526.42 678.642 526.938 679.188 527.307 679.92C527.676 680.648 527.861 681.568 527.861 682.682V691H525.849V682.818C525.849 681.79 525.582 680.989 525.048 680.415C524.514 679.835 523.781 679.545 522.849 679.545C522.207 679.545 521.634 679.685 521.128 679.963C520.628 680.241 520.233 680.648 519.943 681.182C519.653 681.716 519.509 682.364 519.509 683.125ZM535.388 691.307C534.559 691.307 533.806 691.151 533.13 690.838C532.454 690.52 531.917 690.062 531.519 689.466C531.121 688.864 530.923 688.136 530.923 687.284C530.923 686.534 531.07 685.926 531.366 685.46C531.661 684.989 532.056 684.619 532.55 684.352C533.045 684.085 533.59 683.886 534.187 683.756C534.789 683.619 535.394 683.511 536.002 683.432C536.798 683.33 537.442 683.253 537.937 683.202C538.437 683.145 538.8 683.051 539.028 682.92C539.261 682.79 539.377 682.562 539.377 682.239V682.17C539.377 681.33 539.147 680.676 538.687 680.21C538.232 679.744 537.542 679.511 536.616 679.511C535.656 679.511 534.903 679.722 534.357 680.142C533.812 680.562 533.428 681.011 533.207 681.489L531.298 680.807C531.638 680.011 532.093 679.392 532.661 678.949C533.235 678.5 533.86 678.187 534.536 678.011C535.218 677.83 535.888 677.739 536.548 677.739C536.968 677.739 537.451 677.79 537.996 677.892C538.548 677.989 539.079 678.19 539.59 678.497C540.107 678.804 540.536 679.267 540.877 679.886C541.218 680.506 541.388 681.335 541.388 682.375V691H539.377V689.227H539.275C539.138 689.511 538.911 689.815 538.593 690.139C538.275 690.463 537.852 690.739 537.323 690.966C536.795 691.193 536.15 691.307 535.388 691.307ZM535.695 689.5C536.491 689.5 537.161 689.344 537.707 689.031C538.258 688.719 538.673 688.315 538.951 687.821C539.235 687.327 539.377 686.807 539.377 686.261V684.42C539.292 684.523 539.104 684.616 538.815 684.702C538.531 684.781 538.201 684.852 537.826 684.915C537.457 684.972 537.096 685.023 536.744 685.068C536.397 685.108 536.116 685.142 535.9 685.17C535.377 685.239 534.888 685.349 534.434 685.503C533.985 685.651 533.621 685.875 533.343 686.176C533.07 686.472 532.934 686.875 532.934 687.386C532.934 688.085 533.192 688.614 533.71 688.972C534.232 689.324 534.894 689.5 535.695 689.5ZM545.06 691V677.909H547.003V679.955H547.173C547.446 679.256 547.886 678.713 548.494 678.327C549.102 677.935 549.832 677.739 550.685 677.739C551.548 677.739 552.267 677.935 552.841 678.327C553.42 678.713 553.872 679.256 554.196 679.955H554.332C554.668 679.278 555.17 678.741 555.841 678.344C556.511 677.94 557.315 677.739 558.253 677.739C559.423 677.739 560.381 678.105 561.125 678.838C561.869 679.565 562.241 680.699 562.241 682.239V691H560.23V682.239C560.23 681.273 559.966 680.582 559.438 680.168C558.909 679.753 558.287 679.545 557.571 679.545C556.651 679.545 555.938 679.824 555.432 680.381C554.926 680.932 554.673 681.631 554.673 682.477V691H552.628V682.034C552.628 681.29 552.386 680.69 551.903 680.236C551.42 679.776 550.798 679.545 550.037 679.545C549.514 679.545 549.026 679.685 548.571 679.963C548.122 680.241 547.759 680.628 547.48 681.122C547.207 681.611 547.071 682.176 547.071 682.818V691H545.06ZM571.408 691.273C570.146 691.273 569.058 690.994 568.143 690.438C567.234 689.875 566.533 689.091 566.038 688.085C565.55 687.074 565.305 685.898 565.305 684.557C565.305 683.216 565.55 682.034 566.038 681.011C566.533 679.983 567.22 679.182 568.101 678.608C568.987 678.028 570.021 677.739 571.203 677.739C571.885 677.739 572.558 677.852 573.223 678.08C573.888 678.307 574.493 678.676 575.038 679.188C575.584 679.693 576.018 680.364 576.342 681.199C576.666 682.034 576.828 683.062 576.828 684.284V685.136H566.737V683.398H574.783C574.783 682.659 574.635 682 574.339 681.42C574.05 680.841 573.635 680.384 573.095 680.048C572.561 679.713 571.93 679.545 571.203 679.545C570.402 679.545 569.709 679.744 569.124 680.142C568.544 680.534 568.098 681.045 567.786 681.676C567.473 682.307 567.317 682.983 567.317 683.705V684.864C567.317 685.852 567.487 686.69 567.828 687.378C568.175 688.06 568.655 688.58 569.268 688.938C569.882 689.29 570.595 689.466 571.408 689.466C571.936 689.466 572.413 689.392 572.839 689.244C573.271 689.091 573.643 688.864 573.956 688.562C574.268 688.256 574.51 687.875 574.68 687.42L576.624 687.966C576.419 688.625 576.075 689.205 575.592 689.705C575.109 690.199 574.513 690.585 573.803 690.864C573.092 691.136 572.294 691.273 571.408 691.273ZM581.899 683.125V691H579.888V677.909H581.831V679.955H582.001C582.308 679.29 582.774 678.756 583.399 678.352C584.024 677.943 584.831 677.739 585.82 677.739C586.706 677.739 587.482 677.92 588.146 678.284C588.811 678.642 589.328 679.188 589.697 679.92C590.067 680.648 590.251 681.568 590.251 682.682V691H588.24V682.818C588.24 681.79 587.973 680.989 587.439 680.415C586.905 679.835 586.172 679.545 585.24 679.545C584.598 679.545 584.024 679.685 583.518 679.963C583.018 680.241 582.624 680.648 582.334 681.182C582.044 681.716 581.899 682.364 581.899 683.125ZM599.62 677.909V679.614H592.836V677.909H599.62ZM594.813 674.773H596.825V687.25C596.825 687.818 596.907 688.244 597.072 688.528C597.242 688.807 597.458 688.994 597.719 689.091C597.987 689.182 598.268 689.227 598.563 689.227C598.785 689.227 598.967 689.216 599.109 689.193C599.251 689.165 599.364 689.142 599.45 689.125L599.859 690.932C599.722 690.983 599.532 691.034 599.288 691.085C599.043 691.142 598.734 691.17 598.359 691.17C597.79 691.17 597.234 691.048 596.688 690.804C596.148 690.56 595.7 690.188 595.342 689.688C594.989 689.188 594.813 688.557 594.813 687.795V674.773Z" fill="black"/>
</svg>
