<svg width="1440" height="1024" viewBox="0 0 1440 1024" fill="none" xmlns="http://www.w3.org/2000/svg">
<rect width="1440" height="1024" fill="white"/>
<rect width="1440" height="88" fill="#D9D9D9"/>
<path d="M23.5227 59V29.9091H33.6932C35.7197 29.9091 37.3911 30.2595 38.7074 30.9602C40.0237 31.6515 41.0038 32.5843 41.6477 33.7585C42.2917 34.9233 42.6136 36.2159 42.6136 37.6364C42.6136 38.8864 42.3911 39.9186 41.946 40.733C41.5104 41.5473 40.9328 42.1913 40.2131 42.6648C39.5028 43.1383 38.7311 43.4886 37.8977 43.7159V44C38.7879 44.0568 39.6828 44.3693 40.5824 44.9375C41.482 45.5057 42.2348 46.3201 42.8409 47.3807C43.447 48.4413 43.75 49.7386 43.75 51.2727C43.75 52.7311 43.4186 54.0426 42.7557 55.2074C42.0928 56.3722 41.0464 57.2955 39.6165 57.9773C38.1866 58.6591 36.3258 59 34.0341 59H23.5227ZM27.0455 55.875H34.0341C36.3352 55.875 37.9688 55.4299 38.9347 54.5398C39.91 53.6402 40.3977 52.5511 40.3977 51.2727C40.3977 50.2879 40.1468 49.3788 39.6449 48.5455C39.143 47.7027 38.428 47.0303 37.5 46.5284C36.572 46.017 35.4735 45.7614 34.2045 45.7614H27.0455V55.875ZM27.0455 42.6932H33.5795C34.6402 42.6932 35.5966 42.4848 36.4489 42.0682C37.3106 41.6515 37.9924 41.0644 38.4943 40.3068C39.0057 39.5492 39.2614 38.6591 39.2614 37.6364C39.2614 36.358 38.8163 35.2737 37.9261 34.3835C37.036 33.4839 35.625 33.0341 33.6932 33.0341H27.0455V42.6932ZM58.2315 59.4545C56.1293 59.4545 54.3158 58.9905 52.7912 58.0625C51.276 57.125 50.1065 55.8182 49.2827 54.142C48.4683 52.4564 48.0611 50.4962 48.0611 48.2614C48.0611 46.0265 48.4683 44.0568 49.2827 42.3523C50.1065 40.6383 51.2524 39.303 52.7202 38.3466C54.1974 37.3807 55.9209 36.8977 57.8906 36.8977C59.027 36.8977 60.1491 37.0871 61.2571 37.4659C62.3651 37.8447 63.3736 38.4602 64.2827 39.3125C65.1918 40.1553 65.9162 41.2727 66.456 42.6648C66.9957 44.0568 67.2656 45.7708 67.2656 47.8068V49.2273H50.4474V46.3295H63.8565C63.8565 45.0985 63.6103 44 63.1179 43.0341C62.6349 42.0682 61.9437 41.3059 61.044 40.7472C60.1539 40.1884 59.1027 39.9091 57.8906 39.9091C56.5554 39.9091 55.4001 40.2405 54.4247 40.9034C53.4588 41.5568 52.7154 42.4091 52.1946 43.4602C51.6738 44.5114 51.4134 45.6383 51.4134 46.8409V48.7727C51.4134 50.4205 51.6974 51.8172 52.2656 52.9631C52.8433 54.0994 53.6435 54.9659 54.6662 55.5625C55.6889 56.1496 56.8774 56.4432 58.2315 56.4432C59.1122 56.4432 59.9077 56.3201 60.6179 56.0739C61.3376 55.8182 61.9579 55.4394 62.4787 54.9375C62.9995 54.4261 63.402 53.7917 63.6861 53.0341L66.9247 53.9432C66.5838 55.0417 66.0109 56.0076 65.206 56.8409C64.401 57.6648 63.4067 58.3087 62.223 58.7727C61.0393 59.2273 59.7088 59.4545 58.2315 59.4545ZM81.5128 59.4545C79.4105 59.4545 77.5971 58.9905 76.0724 58.0625C74.5573 57.125 73.3878 55.8182 72.5639 54.142C71.7495 52.4564 71.3423 50.4962 71.3423 48.2614C71.3423 46.0265 71.7495 44.0568 72.5639 42.3523C73.3878 40.6383 74.5336 39.303 76.0014 38.3466C77.4787 37.3807 79.2022 36.8977 81.1719 36.8977C82.3082 36.8977 83.4304 37.0871 84.5384 37.4659C85.6463 37.8447 86.6548 38.4602 87.5639 39.3125C88.473 40.1553 89.1974 41.2727 89.7372 42.6648C90.277 44.0568 90.5469 45.7708 90.5469 47.8068V49.2273H73.7287V46.3295H87.1378C87.1378 45.0985 86.8916 44 86.3991 43.0341C85.9162 42.0682 85.2249 41.3059 84.3253 40.7472C83.4351 40.1884 82.384 39.9091 81.1719 39.9091C79.8366 39.9091 78.6813 40.2405 77.706 40.9034C76.7401 41.5568 75.9967 42.4091 75.4759 43.4602C74.955 44.5114 74.6946 45.6383 74.6946 46.8409V48.7727C74.6946 50.4205 74.9787 51.8172 75.5469 52.9631C76.1245 54.0994 76.9247 54.9659 77.9474 55.5625C78.9702 56.1496 80.1586 56.4432 81.5128 56.4432C82.3935 56.4432 83.1889 56.3201 83.8991 56.0739C84.6188 55.8182 85.2391 55.4394 85.7599 54.9375C86.2808 54.4261 86.6832 53.7917 86.9673 53.0341L90.206 53.9432C89.8651 55.0417 89.2921 56.0076 88.4872 56.8409C87.6823 57.6648 86.688 58.3087 85.5043 58.7727C84.3205 59.2273 82.9901 59.4545 81.5128 59.4545ZM95.6463 59V37.1818H98.8849V40.4773H99.1122C99.5099 39.3977 100.23 38.5218 101.271 37.8494C102.313 37.1771 103.487 36.8409 104.794 36.8409C105.04 36.8409 105.348 36.8456 105.717 36.8551C106.087 36.8646 106.366 36.8788 106.555 36.8977V40.3068C106.442 40.2784 106.181 40.2358 105.774 40.179C105.376 40.1127 104.955 40.0795 104.51 40.0795C103.449 40.0795 102.502 40.3021 101.669 40.7472C100.845 41.1828 100.192 41.7888 99.7088 42.5653C99.2353 43.3324 98.9986 44.2083 98.9986 45.1932V59H95.6463ZM110.529 67.1818V37.1818H113.768V40.6477H114.165C114.412 40.2689 114.753 39.786 115.188 39.1989C115.633 38.6023 116.268 38.072 117.092 37.608C117.925 37.1345 119.052 36.8977 120.472 36.8977C122.309 36.8977 123.929 37.357 125.33 38.2756C126.732 39.1941 127.826 40.4962 128.612 42.1818C129.397 43.8674 129.79 45.8561 129.79 48.1477C129.79 50.4583 129.397 52.4612 128.612 54.1562C127.826 55.8419 126.737 57.1487 125.344 58.0767C123.952 58.9953 122.347 59.4545 120.529 59.4545C119.128 59.4545 118.005 59.2225 117.163 58.7585C116.32 58.285 115.671 57.75 115.217 57.1534C114.762 56.5473 114.412 56.0455 114.165 55.6477H113.881V67.1818H110.529ZM113.825 48.0909C113.825 49.7386 114.066 51.1922 114.549 52.4517C115.032 53.7017 115.737 54.6818 116.665 55.392C117.594 56.0928 118.73 56.4432 120.075 56.4432C121.476 56.4432 122.646 56.0739 123.583 55.3352C124.53 54.5871 125.24 53.5833 125.714 52.3239C126.197 51.0549 126.438 49.6439 126.438 48.0909C126.438 46.5568 126.201 45.1742 125.728 43.9432C125.264 42.7027 124.558 41.7225 123.612 41.0028C122.674 40.2737 121.495 39.9091 120.075 39.9091C118.711 39.9091 117.565 40.2547 116.637 40.946C115.709 41.6278 115.008 42.5843 114.535 43.8153C114.061 45.0369 113.825 46.4621 113.825 48.0909ZM143.768 59.4545C141.798 59.4545 140.07 58.9858 138.583 58.0483C137.106 57.1108 135.951 55.7992 135.117 54.1136C134.293 52.428 133.881 50.4583 133.881 48.2045C133.881 45.9318 134.293 43.9479 135.117 42.2528C135.951 40.5578 137.106 39.2415 138.583 38.304C140.07 37.3665 141.798 36.8977 143.768 36.8977C145.737 36.8977 147.461 37.3665 148.938 38.304C150.425 39.2415 151.58 40.5578 152.404 42.2528C153.237 43.9479 153.654 45.9318 153.654 48.2045C153.654 50.4583 153.237 52.428 152.404 54.1136C151.58 55.7992 150.425 57.1108 148.938 58.0483C147.461 58.9858 145.737 59.4545 143.768 59.4545ZM143.768 56.4432C145.264 56.4432 146.495 56.0597 147.461 55.2926C148.427 54.5256 149.142 53.517 149.606 52.267C150.07 51.017 150.302 49.6629 150.302 48.2045C150.302 46.7462 150.07 45.3873 149.606 44.1278C149.142 42.8684 148.427 41.8504 147.461 41.0739C146.495 40.2973 145.264 39.9091 143.768 39.9091C142.272 39.9091 141.04 40.2973 140.075 41.0739C139.109 41.8504 138.394 42.8684 137.93 44.1278C137.466 45.3873 137.234 46.7462 137.234 48.2045C137.234 49.6629 137.466 51.017 137.93 52.267C138.394 53.517 139.109 54.5256 140.075 55.2926C141.04 56.0597 142.272 56.4432 143.768 56.4432ZM162.124 45.875V59H158.771V37.1818H162.01V40.5909H162.294C162.805 39.483 163.582 38.5928 164.624 37.9205C165.665 37.2386 167.01 36.8977 168.658 36.8977C170.135 36.8977 171.428 37.2008 172.536 37.8068C173.643 38.4034 174.505 39.3125 175.121 40.5341C175.736 41.7462 176.044 43.2803 176.044 45.1364V59H172.692V45.3636C172.692 43.6496 172.247 42.3144 171.357 41.358C170.466 40.392 169.245 39.9091 167.692 39.9091C166.622 39.9091 165.665 40.1411 164.822 40.6051C163.989 41.0691 163.331 41.7462 162.848 42.6364C162.365 43.5265 162.124 44.6061 162.124 45.875ZM190.977 67.6364C189.357 67.6364 187.965 67.428 186.8 67.0114C185.636 66.6042 184.665 66.0644 183.888 65.392C183.121 64.7292 182.511 64.0189 182.056 63.2614L184.727 61.3864C185.03 61.7841 185.413 62.2386 185.877 62.75C186.341 63.2708 186.976 63.7206 187.781 64.0994C188.595 64.4877 189.66 64.6818 190.977 64.6818C192.738 64.6818 194.192 64.2557 195.337 63.4034C196.483 62.5511 197.056 61.2159 197.056 59.3977V54.9659H196.772C196.526 55.3636 196.175 55.8561 195.721 56.4432C195.276 57.0208 194.632 57.5369 193.789 57.9915C192.956 58.4366 191.829 58.6591 190.408 58.6591C188.647 58.6591 187.066 58.2424 185.664 57.4091C184.272 56.5758 183.169 55.3636 182.354 53.7727C181.549 52.1818 181.147 50.25 181.147 47.9773C181.147 45.7424 181.54 43.7964 182.326 42.1392C183.112 40.4725 184.206 39.1847 185.607 38.2756C187.009 37.357 188.628 36.8977 190.465 36.8977C191.886 36.8977 193.013 37.1345 193.846 37.608C194.689 38.072 195.333 38.6023 195.778 39.1989C196.232 39.786 196.583 40.2689 196.829 40.6477H197.17V37.1818H200.408V59.625C200.408 61.5 199.982 63.0246 199.13 64.1989C198.287 65.3826 197.151 66.2491 195.721 66.7983C194.3 67.357 192.719 67.6364 190.977 67.6364ZM190.863 55.6477C192.208 55.6477 193.344 55.34 194.272 54.7244C195.2 54.1089 195.906 53.2235 196.388 52.0682C196.871 50.9129 197.113 49.5303 197.113 47.9205C197.113 46.3485 196.876 44.9612 196.403 43.7585C195.929 42.5559 195.228 41.6136 194.3 40.9318C193.372 40.25 192.227 39.9091 190.863 39.9091C189.442 39.9091 188.259 40.2689 187.312 40.9886C186.374 41.7083 185.669 42.6742 185.195 43.8864C184.731 45.0985 184.499 46.4432 184.499 47.9205C184.499 49.4356 184.736 50.7756 185.21 51.9403C185.692 53.0956 186.403 54.0047 187.34 54.6676C188.287 55.321 189.461 55.6477 190.863 55.6477ZM216.658 33.0341V29.9091H238.477V33.0341H229.329V59H225.806V33.0341H216.658ZM249.158 59.4545C247.189 59.4545 245.46 58.9858 243.974 58.0483C242.496 57.1108 241.341 55.7992 240.508 54.1136C239.684 52.428 239.272 50.4583 239.272 48.2045C239.272 45.9318 239.684 43.9479 240.508 42.2528C241.341 40.5578 242.496 39.2415 243.974 38.304C245.46 37.3665 247.189 36.8977 249.158 36.8977C251.128 36.8977 252.852 37.3665 254.329 38.304C255.816 39.2415 256.971 40.5578 257.795 42.2528C258.628 43.9479 259.045 45.9318 259.045 48.2045C259.045 50.4583 258.628 52.428 257.795 54.1136C256.971 55.7992 255.816 57.1108 254.329 58.0483C252.852 58.9858 251.128 59.4545 249.158 59.4545ZM249.158 56.4432C250.655 56.4432 251.886 56.0597 252.852 55.2926C253.817 54.5256 254.532 53.517 254.996 52.267C255.46 51.017 255.692 49.6629 255.692 48.2045C255.692 46.7462 255.46 45.3873 254.996 44.1278C254.532 42.8684 253.817 41.8504 252.852 41.0739C251.886 40.2973 250.655 39.9091 249.158 39.9091C247.662 39.9091 246.431 40.2973 245.465 41.0739C244.499 41.8504 243.784 42.8684 243.32 44.1278C242.856 45.3873 242.624 46.7462 242.624 48.2045C242.624 49.6629 242.856 51.017 243.32 52.267C243.784 53.517 244.499 54.5256 245.465 55.2926C246.431 56.0597 247.662 56.4432 249.158 56.4432ZM277.912 50.0795V37.1818H281.264V59H277.912V55.3068H277.685C277.173 56.4148 276.378 57.357 275.298 58.1335C274.219 58.9006 272.855 59.2841 271.207 59.2841C269.844 59.2841 268.632 58.9858 267.571 58.3892C266.51 57.7831 265.677 56.8741 265.071 55.6619C264.465 54.4403 264.162 52.9015 264.162 51.0455V37.1818H267.514V50.8182C267.514 52.4091 267.959 53.678 268.849 54.625C269.749 55.572 270.895 56.0455 272.287 56.0455C273.12 56.0455 273.968 55.8324 274.83 55.4062C275.701 54.9801 276.43 54.3267 277.017 53.446C277.614 52.5653 277.912 51.4432 277.912 50.0795ZM287.404 59V37.1818H290.643V40.4773H290.87C291.268 39.3977 291.987 38.5218 293.029 37.8494C294.071 37.1771 295.245 36.8409 296.552 36.8409C296.798 36.8409 297.106 36.8456 297.475 36.8551C297.844 36.8646 298.124 36.8788 298.313 36.8977V40.3068C298.2 40.2784 297.939 40.2358 297.532 40.179C297.134 40.1127 296.713 40.0795 296.268 40.0795C295.207 40.0795 294.26 40.3021 293.427 40.7472C292.603 41.1828 291.95 41.7888 291.467 42.5653C290.993 43.3324 290.756 44.2083 290.756 45.1932V59H287.404ZM305.639 45.875V59H302.287V37.1818H305.526V40.5909H305.81C306.321 39.483 307.098 38.5928 308.139 37.9205C309.181 37.2386 310.526 36.8977 312.173 36.8977C313.651 36.8977 314.943 37.2008 316.051 37.8068C317.159 38.4034 318.021 39.3125 318.636 40.5341C319.252 41.7462 319.56 43.2803 319.56 45.1364V59H316.207V45.3636C316.207 43.6496 315.762 42.3144 314.872 41.358C313.982 40.392 312.76 39.9091 311.207 39.9091C310.137 39.9091 309.181 40.1411 308.338 40.6051C307.505 41.0691 306.847 41.7462 306.364 42.6364C305.881 43.5265 305.639 44.6061 305.639 45.875ZM332.106 59.5114C330.723 59.5114 329.469 59.2509 328.342 58.7301C327.215 58.1998 326.32 57.4375 325.657 56.4432C324.994 55.4394 324.663 54.2273 324.663 52.8068C324.663 51.5568 324.909 50.5436 325.401 49.767C325.894 48.9811 326.552 48.3655 327.376 47.9205C328.2 47.4754 329.109 47.1439 330.103 46.9261C331.107 46.6989 332.115 46.5189 333.129 46.3864C334.454 46.2159 335.529 46.0881 336.353 46.0028C337.186 45.9081 337.792 45.7519 338.171 45.5341C338.559 45.3163 338.754 44.9375 338.754 44.3977V44.2841C338.754 42.8826 338.37 41.7936 337.603 41.017C336.845 40.2405 335.695 39.8523 334.151 39.8523C332.551 39.8523 331.296 40.2027 330.387 40.9034C329.478 41.6042 328.839 42.3523 328.469 43.1477L325.288 42.0114C325.856 40.6856 326.613 39.6534 327.56 38.9148C328.517 38.1667 329.558 37.6458 330.685 37.3523C331.822 37.0492 332.939 36.8977 334.038 36.8977C334.738 36.8977 335.543 36.983 336.452 37.1534C337.371 37.3144 338.256 37.6506 339.109 38.1619C339.97 38.6733 340.685 39.4451 341.254 40.4773C341.822 41.5095 342.106 42.892 342.106 44.625V59H338.754V56.0455H338.583C338.356 56.5189 337.977 57.0256 337.447 57.5653C336.916 58.1051 336.211 58.5644 335.33 58.9432C334.45 59.322 333.375 59.5114 332.106 59.5114ZM332.617 56.5C333.943 56.5 335.06 56.2396 335.969 55.7188C336.888 55.1979 337.579 54.5256 338.043 53.7017C338.517 52.8778 338.754 52.0114 338.754 51.1023V48.0341C338.612 48.2045 338.299 48.3608 337.816 48.5028C337.343 48.6354 336.793 48.7538 336.168 48.858C335.553 48.9527 334.951 49.0379 334.364 49.1136C333.787 49.1799 333.318 49.2367 332.958 49.2841C332.087 49.3977 331.272 49.5824 330.515 49.8381C329.767 50.0843 329.161 50.4583 328.697 50.9602C328.242 51.4527 328.015 52.125 328.015 52.9773C328.015 54.142 328.446 55.0227 329.308 55.6193C330.179 56.2064 331.282 56.5 332.617 56.5ZM348.224 59V37.1818H351.463V40.5909H351.747C352.202 39.4261 352.936 38.5218 353.949 37.8778C354.962 37.2244 356.179 36.8977 357.599 36.8977C359.039 36.8977 360.237 37.2244 361.193 37.8778C362.159 38.5218 362.912 39.4261 363.452 40.5909H363.679C364.238 39.464 365.076 38.5691 366.193 37.9062C367.311 37.2339 368.651 36.8977 370.213 36.8977C372.164 36.8977 373.759 37.5085 375 38.7301C376.241 39.9422 376.861 41.8314 376.861 44.3977V59H373.509V44.3977C373.509 42.7879 373.068 41.6373 372.188 40.946C371.307 40.2547 370.27 39.9091 369.077 39.9091C367.543 39.9091 366.354 40.3731 365.511 41.3011C364.669 42.2197 364.247 43.3845 364.247 44.7955V59H360.838V44.0568C360.838 42.8163 360.436 41.8172 359.631 41.0597C358.826 40.2926 357.789 39.9091 356.52 39.9091C355.649 39.9091 354.834 40.1411 354.077 40.6051C353.329 41.0691 352.723 41.7131 352.259 42.5369C351.804 43.3513 351.577 44.2936 351.577 45.3636V59H348.224ZM392.138 59.4545C390.036 59.4545 388.222 58.9905 386.697 58.0625C385.182 57.125 384.013 55.8182 383.189 54.142C382.375 52.4564 381.967 50.4962 381.967 48.2614C381.967 46.0265 382.375 44.0568 383.189 42.3523C384.013 40.6383 385.159 39.303 386.626 38.3466C388.104 37.3807 389.827 36.8977 391.797 36.8977C392.933 36.8977 394.055 37.0871 395.163 37.4659C396.271 37.8447 397.28 38.4602 398.189 39.3125C399.098 40.1553 399.822 41.2727 400.362 42.6648C400.902 44.0568 401.172 45.7708 401.172 47.8068V49.2273H384.354V46.3295H397.763C397.763 45.0985 397.517 44 397.024 43.0341C396.541 42.0682 395.85 41.3059 394.95 40.7472C394.06 40.1884 393.009 39.9091 391.797 39.9091C390.462 39.9091 389.306 40.2405 388.331 40.9034C387.365 41.5568 386.622 42.4091 386.101 43.4602C385.58 44.5114 385.32 45.6383 385.32 46.8409V48.7727C385.32 50.4205 385.604 51.8172 386.172 52.9631C386.75 54.0994 387.55 54.9659 388.572 55.5625C389.595 56.1496 390.784 56.4432 392.138 56.4432C393.018 56.4432 393.814 56.3201 394.524 56.0739C395.244 55.8182 395.864 55.4394 396.385 54.9375C396.906 54.4261 397.308 53.7917 397.592 53.0341L400.831 53.9432C400.49 55.0417 399.917 56.0076 399.112 56.8409C398.307 57.6648 397.313 58.3087 396.129 58.7727C394.946 59.2273 393.615 59.4545 392.138 59.4545ZM409.624 45.875V59H406.271V37.1818H409.51V40.5909H409.794C410.305 39.483 411.082 38.5928 412.124 37.9205C413.165 37.2386 414.51 36.8977 416.158 36.8977C417.635 36.8977 418.928 37.2008 420.036 37.8068C421.143 38.4034 422.005 39.3125 422.621 40.5341C423.236 41.7462 423.544 43.2803 423.544 45.1364V59H420.192V45.3636C420.192 43.6496 419.747 42.3144 418.857 41.358C417.966 40.392 416.745 39.9091 415.192 39.9091C414.122 39.9091 413.165 40.1411 412.322 40.6051C411.489 41.0691 410.831 41.7462 410.348 42.6364C409.865 43.5265 409.624 44.6061 409.624 45.875ZM439.158 37.1818V40.0227H427.852V37.1818H439.158ZM431.147 31.9545H434.499V52.75C434.499 53.697 434.637 54.4072 434.911 54.8807C435.195 55.3447 435.555 55.6572 435.991 55.8182C436.436 55.9697 436.905 56.0455 437.397 56.0455C437.766 56.0455 438.069 56.0265 438.306 55.9886C438.543 55.9413 438.732 55.9034 438.874 55.875L439.556 58.8864C439.329 58.9716 439.012 59.0568 438.604 59.142C438.197 59.2367 437.681 59.2841 437.056 59.2841C436.109 59.2841 435.181 59.0805 434.272 58.6733C433.372 58.2661 432.624 57.6458 432.028 56.8125C431.441 55.9792 431.147 54.928 431.147 53.6591V31.9545Z" fill="black"/>
<rect x="336" y="147" width="767" height="293" fill="#D9D9D9"/>
<rect x="398" y="211" width="274" height="155" fill="#5289DB"/>
<rect x="770" y="211" width="274" height="155" fill="#5289DB"/>
<path d="M481.034 300V270.909H484.557V296.875H498.08V300H481.034ZM511.944 300.455C509.974 300.455 508.246 299.986 506.759 299.048C505.282 298.111 504.126 296.799 503.293 295.114C502.469 293.428 502.057 291.458 502.057 289.205C502.057 286.932 502.469 284.948 503.293 283.253C504.126 281.558 505.282 280.241 506.759 279.304C508.246 278.366 509.974 277.898 511.944 277.898C513.913 277.898 515.637 278.366 517.114 279.304C518.601 280.241 519.756 281.558 520.58 283.253C521.413 284.948 521.83 286.932 521.83 289.205C521.83 291.458 521.413 293.428 520.58 295.114C519.756 296.799 518.601 298.111 517.114 299.048C515.637 299.986 513.913 300.455 511.944 300.455ZM511.944 297.443C513.44 297.443 514.671 297.06 515.637 296.293C516.603 295.526 517.318 294.517 517.782 293.267C518.246 292.017 518.478 290.663 518.478 289.205C518.478 287.746 518.246 286.387 517.782 285.128C517.318 283.868 516.603 282.85 515.637 282.074C514.671 281.297 513.44 280.909 511.944 280.909C510.447 280.909 509.216 281.297 508.25 282.074C507.284 282.85 506.569 283.868 506.105 285.128C505.641 286.387 505.409 287.746 505.409 289.205C505.409 290.663 505.641 292.017 506.105 293.267C506.569 294.517 507.284 295.526 508.25 296.293C509.216 297.06 510.447 297.443 511.944 297.443ZM535.754 308.636C534.135 308.636 532.743 308.428 531.578 308.011C530.413 307.604 529.442 307.064 528.666 306.392C527.899 305.729 527.288 305.019 526.833 304.261L529.504 302.386C529.807 302.784 530.19 303.239 530.654 303.75C531.118 304.271 531.753 304.721 532.558 305.099C533.372 305.488 534.438 305.682 535.754 305.682C537.515 305.682 538.969 305.256 540.115 304.403C541.261 303.551 541.833 302.216 541.833 300.398V295.966H541.549C541.303 296.364 540.953 296.856 540.498 297.443C540.053 298.021 539.409 298.537 538.566 298.991C537.733 299.437 536.606 299.659 535.186 299.659C533.424 299.659 531.843 299.242 530.441 298.409C529.049 297.576 527.946 296.364 527.132 294.773C526.327 293.182 525.924 291.25 525.924 288.977C525.924 286.742 526.317 284.796 527.103 283.139C527.889 281.473 528.983 280.185 530.385 279.276C531.786 278.357 533.405 277.898 535.243 277.898C536.663 277.898 537.79 278.134 538.623 278.608C539.466 279.072 540.11 279.602 540.555 280.199C541.01 280.786 541.36 281.269 541.606 281.648H541.947V278.182H545.186V300.625C545.186 302.5 544.76 304.025 543.907 305.199C543.065 306.383 541.928 307.249 540.498 307.798C539.078 308.357 537.496 308.636 535.754 308.636ZM535.64 296.648C536.985 296.648 538.121 296.34 539.049 295.724C539.977 295.109 540.683 294.223 541.166 293.068C541.649 291.913 541.89 290.53 541.89 288.92C541.89 287.348 541.654 285.961 541.18 284.759C540.707 283.556 540.006 282.614 539.078 281.932C538.15 281.25 537.004 280.909 535.64 280.909C534.22 280.909 533.036 281.269 532.089 281.989C531.152 282.708 530.446 283.674 529.973 284.886C529.509 286.098 529.277 287.443 529.277 288.92C529.277 290.436 529.513 291.776 529.987 292.94C530.47 294.096 531.18 295.005 532.118 295.668C533.065 296.321 534.239 296.648 535.64 296.648ZM566.549 270.909V300H563.027V270.909H566.549ZM576.51 286.875V300H573.158V278.182H576.397V281.591H576.681C577.192 280.483 577.969 279.593 579.01 278.92C580.052 278.239 581.397 277.898 583.044 277.898C584.522 277.898 585.814 278.201 586.922 278.807C588.03 279.403 588.892 280.312 589.507 281.534C590.123 282.746 590.431 284.28 590.431 286.136V300H587.078V286.364C587.078 284.65 586.633 283.314 585.743 282.358C584.853 281.392 583.632 280.909 582.078 280.909C581.008 280.909 580.052 281.141 579.209 281.605C578.376 282.069 577.718 282.746 577.235 283.636C576.752 284.527 576.51 285.606 576.51 286.875Z" fill="white"/>
<path d="M851.908 278.182C851.738 276.742 851.047 275.625 849.835 274.83C848.622 274.034 847.136 273.636 845.374 273.636C844.086 273.636 842.96 273.845 841.994 274.261C841.037 274.678 840.289 275.251 839.749 275.98C839.219 276.709 838.954 277.538 838.954 278.466C838.954 279.242 839.138 279.91 839.508 280.469C839.887 281.018 840.37 281.477 840.957 281.847C841.544 282.206 842.159 282.505 842.803 282.741C843.447 282.969 844.039 283.153 844.579 283.295L847.533 284.091C848.291 284.29 849.134 284.564 850.062 284.915C850.999 285.265 851.894 285.743 852.746 286.349C853.608 286.946 854.318 287.713 854.877 288.651C855.436 289.588 855.715 290.739 855.715 292.102C855.715 293.674 855.303 295.095 854.479 296.364C853.665 297.633 852.472 298.641 850.9 299.389C849.337 300.137 847.439 300.511 845.204 300.511C843.121 300.511 841.317 300.175 839.792 299.503C838.277 298.83 837.084 297.893 836.212 296.69C835.351 295.488 834.863 294.091 834.749 292.5H838.386C838.48 293.598 838.85 294.508 839.494 295.227C840.147 295.937 840.971 296.468 841.965 296.818C842.969 297.159 844.049 297.33 845.204 297.33C846.549 297.33 847.756 297.112 848.826 296.676C849.896 296.231 850.744 295.616 851.369 294.83C851.994 294.034 852.306 293.106 852.306 292.045C852.306 291.08 852.036 290.294 851.496 289.688C850.957 289.081 850.246 288.589 849.366 288.21C848.485 287.831 847.533 287.5 846.511 287.216L842.931 286.193C840.658 285.54 838.859 284.607 837.533 283.395C836.208 282.183 835.545 280.597 835.545 278.636C835.545 277.008 835.985 275.587 836.866 274.375C837.756 273.153 838.949 272.206 840.445 271.534C841.951 270.852 843.632 270.511 845.488 270.511C847.363 270.511 849.03 270.848 850.488 271.52C851.946 272.183 853.102 273.092 853.954 274.247C854.816 275.402 855.27 276.714 855.317 278.182H851.908ZM861.053 300V278.182H864.405V300H861.053ZM862.757 274.545C862.104 274.545 861.54 274.323 861.067 273.878C860.603 273.433 860.371 272.898 860.371 272.273C860.371 271.648 860.603 271.113 861.067 270.668C861.54 270.223 862.104 270 862.757 270C863.411 270 863.969 270.223 864.433 270.668C864.907 271.113 865.143 271.648 865.143 272.273C865.143 272.898 864.907 273.433 864.433 273.878C863.969 274.323 863.411 274.545 862.757 274.545ZM879.352 308.636C877.732 308.636 876.34 308.428 875.175 308.011C874.011 307.604 873.04 307.064 872.263 306.392C871.496 305.729 870.886 305.019 870.431 304.261L873.102 302.386C873.405 302.784 873.788 303.239 874.252 303.75C874.716 304.271 875.351 304.721 876.156 305.099C876.97 305.488 878.035 305.682 879.352 305.682C881.113 305.682 882.567 305.256 883.712 304.403C884.858 303.551 885.431 302.216 885.431 300.398V295.966H885.147C884.901 296.364 884.55 296.856 884.096 297.443C883.651 298.021 883.007 298.537 882.164 298.991C881.331 299.437 880.204 299.659 878.783 299.659C877.022 299.659 875.441 299.242 874.039 298.409C872.647 297.576 871.544 296.364 870.729 294.773C869.924 293.182 869.522 291.25 869.522 288.977C869.522 286.742 869.915 284.796 870.701 283.139C871.487 281.473 872.581 280.185 873.982 279.276C875.384 278.357 877.003 277.898 878.84 277.898C880.261 277.898 881.388 278.134 882.221 278.608C883.064 279.072 883.708 279.602 884.153 280.199C884.607 280.786 884.958 281.269 885.204 281.648H885.545V278.182H888.783V300.625C888.783 302.5 888.357 304.025 887.505 305.199C886.662 306.383 885.526 307.249 884.096 307.798C882.675 308.357 881.094 308.636 879.352 308.636ZM879.238 296.648C880.583 296.648 881.719 296.34 882.647 295.724C883.575 295.109 884.281 294.223 884.763 293.068C885.246 291.913 885.488 290.53 885.488 288.92C885.488 287.348 885.251 285.961 884.778 284.759C884.304 283.556 883.603 282.614 882.675 281.932C881.747 281.25 880.602 280.909 879.238 280.909C877.817 280.909 876.634 281.269 875.687 281.989C874.749 282.708 874.044 283.674 873.57 284.886C873.106 286.098 872.874 287.443 872.874 288.92C872.874 290.436 873.111 291.776 873.585 292.94C874.067 294.096 874.778 295.005 875.715 295.668C876.662 296.321 877.836 296.648 879.238 296.648ZM898.272 286.875V300H894.92V278.182H898.158V281.591H898.442C898.954 280.483 899.73 279.593 900.772 278.92C901.814 278.239 903.158 277.898 904.806 277.898C906.283 277.898 907.576 278.201 908.684 278.807C909.792 279.403 910.654 280.312 911.269 281.534C911.885 282.746 912.192 284.28 912.192 286.136V300H908.84V286.364C908.84 284.65 908.395 283.314 907.505 282.358C906.615 281.392 905.393 280.909 903.84 280.909C902.77 280.909 901.814 281.141 900.971 281.605C900.138 282.069 899.479 282.746 898.996 283.636C898.513 284.527 898.272 285.606 898.272 286.875ZM949.114 270.909H952.636V290.17C952.636 292.159 952.168 293.935 951.23 295.497C950.302 297.05 948.991 298.277 947.295 299.176C945.6 300.066 943.612 300.511 941.33 300.511C939.047 300.511 937.059 300.066 935.364 299.176C933.669 298.277 932.352 297.05 931.415 295.497C930.487 293.935 930.023 292.159 930.023 290.17V270.909H933.545V289.886C933.545 291.307 933.858 292.571 934.483 293.679C935.108 294.777 935.998 295.644 937.153 296.278C938.318 296.903 939.71 297.216 941.33 297.216C942.949 297.216 944.341 296.903 945.506 296.278C946.67 295.644 947.561 294.777 948.176 293.679C948.801 292.571 949.114 291.307 949.114 289.886V270.909ZM959.217 308.182V278.182H962.455V281.648H962.853C963.099 281.269 963.44 280.786 963.876 280.199C964.321 279.602 964.955 279.072 965.779 278.608C966.612 278.134 967.739 277.898 969.16 277.898C970.997 277.898 972.616 278.357 974.018 279.276C975.419 280.194 976.513 281.496 977.299 283.182C978.085 284.867 978.478 286.856 978.478 289.148C978.478 291.458 978.085 293.461 977.299 295.156C976.513 296.842 975.424 298.149 974.032 299.077C972.64 299.995 971.035 300.455 969.217 300.455C967.815 300.455 966.693 300.223 965.85 299.759C965.007 299.285 964.359 298.75 963.904 298.153C963.45 297.547 963.099 297.045 962.853 296.648H962.569V308.182H959.217ZM962.512 289.091C962.512 290.739 962.754 292.192 963.237 293.452C963.719 294.702 964.425 295.682 965.353 296.392C966.281 297.093 967.417 297.443 968.762 297.443C970.164 297.443 971.333 297.074 972.271 296.335C973.218 295.587 973.928 294.583 974.401 293.324C974.884 292.055 975.126 290.644 975.126 289.091C975.126 287.557 974.889 286.174 974.415 284.943C973.951 283.703 973.246 282.723 972.299 282.003C971.362 281.274 970.183 280.909 968.762 280.909C967.398 280.909 966.253 281.255 965.325 281.946C964.397 282.628 963.696 283.584 963.222 284.815C962.749 286.037 962.512 287.462 962.512 289.091Z" fill="white"/>
<rect x="336" y="499" width="767" height="293" fill="#D9D9D9"/>
<rect x="582" y="568" width="274" height="155" fill="#57C27C"/>
<path d="M683.57 660V630.909H693.399C695.681 630.909 697.547 631.321 698.996 632.145C700.454 632.959 701.534 634.062 702.234 635.455C702.935 636.847 703.286 638.4 703.286 640.114C703.286 641.828 702.935 643.385 702.234 644.787C701.543 646.188 700.473 647.306 699.024 648.139C697.575 648.963 695.719 649.375 693.456 649.375H686.411V646.25H693.342C694.905 646.25 696.16 645.98 697.107 645.44C698.054 644.901 698.74 644.171 699.166 643.253C699.602 642.325 699.82 641.278 699.82 640.114C699.82 638.949 699.602 637.907 699.166 636.989C698.74 636.07 698.049 635.35 697.092 634.83C696.136 634.299 694.867 634.034 693.286 634.034H687.092V660H683.57ZM711.858 630.909V660H708.506V630.909H711.858ZM724.418 660.511C723.036 660.511 721.781 660.251 720.654 659.73C719.527 659.2 718.632 658.438 717.969 657.443C717.307 656.439 716.975 655.227 716.975 653.807C716.975 652.557 717.221 651.544 717.714 650.767C718.206 649.981 718.864 649.366 719.688 648.92C720.512 648.475 721.421 648.144 722.415 647.926C723.419 647.699 724.428 647.519 725.441 647.386C726.767 647.216 727.842 647.088 728.665 647.003C729.499 646.908 730.105 646.752 730.484 646.534C730.872 646.316 731.066 645.937 731.066 645.398V645.284C731.066 643.883 730.683 642.794 729.915 642.017C729.158 641.241 728.007 640.852 726.464 640.852C724.863 640.852 723.609 641.203 722.7 641.903C721.79 642.604 721.151 643.352 720.782 644.148L717.6 643.011C718.168 641.686 718.926 640.653 719.873 639.915C720.829 639.167 721.871 638.646 722.998 638.352C724.134 638.049 725.252 637.898 726.35 637.898C727.051 637.898 727.856 637.983 728.765 638.153C729.683 638.314 730.569 638.651 731.421 639.162C732.283 639.673 732.998 640.445 733.566 641.477C734.134 642.509 734.418 643.892 734.418 645.625V660H731.066V657.045H730.896C730.668 657.519 730.29 658.026 729.759 658.565C729.229 659.105 728.523 659.564 727.643 659.943C726.762 660.322 725.687 660.511 724.418 660.511ZM724.93 657.5C726.255 657.5 727.373 657.24 728.282 656.719C729.201 656.198 729.892 655.526 730.356 654.702C730.829 653.878 731.066 653.011 731.066 652.102V649.034C730.924 649.205 730.612 649.361 730.129 649.503C729.655 649.635 729.106 649.754 728.481 649.858C727.865 649.953 727.264 650.038 726.677 650.114C726.099 650.18 725.63 650.237 725.271 650.284C724.399 650.398 723.585 650.582 722.827 650.838C722.079 651.084 721.473 651.458 721.009 651.96C720.555 652.453 720.327 653.125 720.327 653.977C720.327 655.142 720.758 656.023 721.62 656.619C722.491 657.206 723.594 657.5 724.93 657.5ZM741.915 668.182C741.347 668.182 740.84 668.134 740.395 668.04C739.95 667.955 739.642 667.869 739.472 667.784L740.324 664.83C741.138 665.038 741.858 665.114 742.483 665.057C743.108 665 743.662 664.721 744.145 664.219C744.637 663.726 745.087 662.926 745.494 661.818L746.119 660.114L738.051 638.182H741.688L747.71 655.568H747.938L753.96 638.182H757.597L748.335 663.182C747.919 664.309 747.402 665.241 746.787 665.98C746.171 666.728 745.456 667.282 744.642 667.642C743.837 668.002 742.928 668.182 741.915 668.182Z" fill="white"/>
</svg>
