<svg width="1440" height="1024" viewBox="0 0 1440 1024" fill="none" xmlns="http://www.w3.org/2000/svg">
<rect width="1440" height="1024" fill="white"/>
<rect width="1440" height="88" fill="#D9D9D9"/>
<path d="M23.5227 59V29.9091H33.6932C35.7197 29.9091 37.3911 30.2595 38.7074 30.9602C40.0237 31.6515 41.0038 32.5843 41.6477 33.7585C42.2917 34.9233 42.6136 36.2159 42.6136 37.6364C42.6136 38.8864 42.3911 39.9186 41.946 40.733C41.5104 41.5473 40.9328 42.1913 40.2131 42.6648C39.5028 43.1383 38.7311 43.4886 37.8977 43.7159V44C38.7879 44.0568 39.6828 44.3693 40.5824 44.9375C41.482 45.5057 42.2348 46.3201 42.8409 47.3807C43.447 48.4413 43.75 49.7386 43.75 51.2727C43.75 52.7311 43.4186 54.0426 42.7557 55.2074C42.0928 56.3722 41.0464 57.2955 39.6165 57.9773C38.1866 58.6591 36.3258 59 34.0341 59H23.5227ZM27.0455 55.875H34.0341C36.3352 55.875 37.9688 55.4299 38.9347 54.5398C39.91 53.6402 40.3977 52.5511 40.3977 51.2727C40.3977 50.2879 40.1468 49.3788 39.6449 48.5455C39.143 47.7027 38.428 47.0303 37.5 46.5284C36.572 46.017 35.4735 45.7614 34.2045 45.7614H27.0455V55.875ZM27.0455 42.6932H33.5795C34.6402 42.6932 35.5966 42.4848 36.4489 42.0682C37.3106 41.6515 37.9924 41.0644 38.4943 40.3068C39.0057 39.5492 39.2614 38.6591 39.2614 37.6364C39.2614 36.358 38.8163 35.2737 37.9261 34.3835C37.036 33.4839 35.625 33.0341 33.6932 33.0341H27.0455V42.6932ZM58.2315 59.4545C56.1293 59.4545 54.3158 58.9905 52.7912 58.0625C51.276 57.125 50.1065 55.8182 49.2827 54.142C48.4683 52.4564 48.0611 50.4962 48.0611 48.2614C48.0611 46.0265 48.4683 44.0568 49.2827 42.3523C50.1065 40.6383 51.2524 39.303 52.7202 38.3466C54.1974 37.3807 55.9209 36.8977 57.8906 36.8977C59.027 36.8977 60.1491 37.0871 61.2571 37.4659C62.3651 37.8447 63.3736 38.4602 64.2827 39.3125C65.1918 40.1553 65.9162 41.2727 66.456 42.6648C66.9957 44.0568 67.2656 45.7708 67.2656 47.8068V49.2273H50.4474V46.3295H63.8565C63.8565 45.0985 63.6103 44 63.1179 43.0341C62.6349 42.0682 61.9437 41.3059 61.044 40.7472C60.1539 40.1884 59.1027 39.9091 57.8906 39.9091C56.5554 39.9091 55.4001 40.2405 54.4247 40.9034C53.4588 41.5568 52.7154 42.4091 52.1946 43.4602C51.6738 44.5114 51.4134 45.6383 51.4134 46.8409V48.7727C51.4134 50.4205 51.6974 51.8172 52.2656 52.9631C52.8433 54.0994 53.6435 54.9659 54.6662 55.5625C55.6889 56.1496 56.8774 56.4432 58.2315 56.4432C59.1122 56.4432 59.9077 56.3201 60.6179 56.0739C61.3376 55.8182 61.9579 55.4394 62.4787 54.9375C62.9995 54.4261 63.402 53.7917 63.6861 53.0341L66.9247 53.9432C66.5838 55.0417 66.0109 56.0076 65.206 56.8409C64.401 57.6648 63.4067 58.3087 62.223 58.7727C61.0393 59.2273 59.7088 59.4545 58.2315 59.4545ZM81.5128 59.4545C79.4105 59.4545 77.5971 58.9905 76.0724 58.0625C74.5573 57.125 73.3878 55.8182 72.5639 54.142C71.7495 52.4564 71.3423 50.4962 71.3423 48.2614C71.3423 46.0265 71.7495 44.0568 72.5639 42.3523C73.3878 40.6383 74.5336 39.303 76.0014 38.3466C77.4787 37.3807 79.2022 36.8977 81.1719 36.8977C82.3082 36.8977 83.4304 37.0871 84.5384 37.4659C85.6463 37.8447 86.6548 38.4602 87.5639 39.3125C88.473 40.1553 89.1974 41.2727 89.7372 42.6648C90.277 44.0568 90.5469 45.7708 90.5469 47.8068V49.2273H73.7287V46.3295H87.1378C87.1378 45.0985 86.8916 44 86.3991 43.0341C85.9162 42.0682 85.2249 41.3059 84.3253 40.7472C83.4351 40.1884 82.384 39.9091 81.1719 39.9091C79.8366 39.9091 78.6813 40.2405 77.706 40.9034C76.7401 41.5568 75.9967 42.4091 75.4759 43.4602C74.955 44.5114 74.6946 45.6383 74.6946 46.8409V48.7727C74.6946 50.4205 74.9787 51.8172 75.5469 52.9631C76.1245 54.0994 76.9247 54.9659 77.9474 55.5625C78.9702 56.1496 80.1586 56.4432 81.5128 56.4432C82.3935 56.4432 83.1889 56.3201 83.8991 56.0739C84.6188 55.8182 85.2391 55.4394 85.7599 54.9375C86.2808 54.4261 86.6832 53.7917 86.9673 53.0341L90.206 53.9432C89.8651 55.0417 89.2921 56.0076 88.4872 56.8409C87.6823 57.6648 86.688 58.3087 85.5043 58.7727C84.3205 59.2273 82.9901 59.4545 81.5128 59.4545ZM95.6463 59V37.1818H98.8849V40.4773H99.1122C99.5099 39.3977 100.23 38.5218 101.271 37.8494C102.313 37.1771 103.487 36.8409 104.794 36.8409C105.04 36.8409 105.348 36.8456 105.717 36.8551C106.087 36.8646 106.366 36.8788 106.555 36.8977V40.3068C106.442 40.2784 106.181 40.2358 105.774 40.179C105.376 40.1127 104.955 40.0795 104.51 40.0795C103.449 40.0795 102.502 40.3021 101.669 40.7472C100.845 41.1828 100.192 41.7888 99.7088 42.5653C99.2353 43.3324 98.9986 44.2083 98.9986 45.1932V59H95.6463ZM110.529 67.1818V37.1818H113.768V40.6477H114.165C114.412 40.2689 114.753 39.786 115.188 39.1989C115.633 38.6023 116.268 38.072 117.092 37.608C117.925 37.1345 119.052 36.8977 120.472 36.8977C122.309 36.8977 123.929 37.357 125.33 38.2756C126.732 39.1941 127.826 40.4962 128.612 42.1818C129.397 43.8674 129.79 45.8561 129.79 48.1477C129.79 50.4583 129.397 52.4612 128.612 54.1562C127.826 55.8419 126.737 57.1487 125.344 58.0767C123.952 58.9953 122.347 59.4545 120.529 59.4545C119.128 59.4545 118.005 59.2225 117.163 58.7585C116.32 58.285 115.671 57.75 115.217 57.1534C114.762 56.5473 114.412 56.0455 114.165 55.6477H113.881V67.1818H110.529ZM113.825 48.0909C113.825 49.7386 114.066 51.1922 114.549 52.4517C115.032 53.7017 115.737 54.6818 116.665 55.392C117.594 56.0928 118.73 56.4432 120.075 56.4432C121.476 56.4432 122.646 56.0739 123.583 55.3352C124.53 54.5871 125.24 53.5833 125.714 52.3239C126.197 51.0549 126.438 49.6439 126.438 48.0909C126.438 46.5568 126.201 45.1742 125.728 43.9432C125.264 42.7027 124.558 41.7225 123.612 41.0028C122.674 40.2737 121.495 39.9091 120.075 39.9091C118.711 39.9091 117.565 40.2547 116.637 40.946C115.709 41.6278 115.008 42.5843 114.535 43.8153C114.061 45.0369 113.825 46.4621 113.825 48.0909ZM143.768 59.4545C141.798 59.4545 140.07 58.9858 138.583 58.0483C137.106 57.1108 135.951 55.7992 135.117 54.1136C134.293 52.428 133.881 50.4583 133.881 48.2045C133.881 45.9318 134.293 43.9479 135.117 42.2528C135.951 40.5578 137.106 39.2415 138.583 38.304C140.07 37.3665 141.798 36.8977 143.768 36.8977C145.737 36.8977 147.461 37.3665 148.938 38.304C150.425 39.2415 151.58 40.5578 152.404 42.2528C153.237 43.9479 153.654 45.9318 153.654 48.2045C153.654 50.4583 153.237 52.428 152.404 54.1136C151.58 55.7992 150.425 57.1108 148.938 58.0483C147.461 58.9858 145.737 59.4545 143.768 59.4545ZM143.768 56.4432C145.264 56.4432 146.495 56.0597 147.461 55.2926C148.427 54.5256 149.142 53.517 149.606 52.267C150.07 51.017 150.302 49.6629 150.302 48.2045C150.302 46.7462 150.07 45.3873 149.606 44.1278C149.142 42.8684 148.427 41.8504 147.461 41.0739C146.495 40.2973 145.264 39.9091 143.768 39.9091C142.272 39.9091 141.04 40.2973 140.075 41.0739C139.109 41.8504 138.394 42.8684 137.93 44.1278C137.466 45.3873 137.234 46.7462 137.234 48.2045C137.234 49.6629 137.466 51.017 137.93 52.267C138.394 53.517 139.109 54.5256 140.075 55.2926C141.04 56.0597 142.272 56.4432 143.768 56.4432ZM162.124 45.875V59H158.771V37.1818H162.01V40.5909H162.294C162.805 39.483 163.582 38.5928 164.624 37.9205C165.665 37.2386 167.01 36.8977 168.658 36.8977C170.135 36.8977 171.428 37.2008 172.536 37.8068C173.643 38.4034 174.505 39.3125 175.121 40.5341C175.736 41.7462 176.044 43.2803 176.044 45.1364V59H172.692V45.3636C172.692 43.6496 172.247 42.3144 171.357 41.358C170.466 40.392 169.245 39.9091 167.692 39.9091C166.622 39.9091 165.665 40.1411 164.822 40.6051C163.989 41.0691 163.331 41.7462 162.848 42.6364C162.365 43.5265 162.124 44.6061 162.124 45.875ZM190.977 67.6364C189.357 67.6364 187.965 67.428 186.8 67.0114C185.636 66.6042 184.665 66.0644 183.888 65.392C183.121 64.7292 182.511 64.0189 182.056 63.2614L184.727 61.3864C185.03 61.7841 185.413 62.2386 185.877 62.75C186.341 63.2708 186.976 63.7206 187.781 64.0994C188.595 64.4877 189.66 64.6818 190.977 64.6818C192.738 64.6818 194.192 64.2557 195.337 63.4034C196.483 62.5511 197.056 61.2159 197.056 59.3977V54.9659H196.772C196.526 55.3636 196.175 55.8561 195.721 56.4432C195.276 57.0208 194.632 57.5369 193.789 57.9915C192.956 58.4366 191.829 58.6591 190.408 58.6591C188.647 58.6591 187.066 58.2424 185.664 57.4091C184.272 56.5758 183.169 55.3636 182.354 53.7727C181.549 52.1818 181.147 50.25 181.147 47.9773C181.147 45.7424 181.54 43.7964 182.326 42.1392C183.112 40.4725 184.206 39.1847 185.607 38.2756C187.009 37.357 188.628 36.8977 190.465 36.8977C191.886 36.8977 193.013 37.1345 193.846 37.608C194.689 38.072 195.333 38.6023 195.778 39.1989C196.232 39.786 196.583 40.2689 196.829 40.6477H197.17V37.1818H200.408V59.625C200.408 61.5 199.982 63.0246 199.13 64.1989C198.287 65.3826 197.151 66.2491 195.721 66.7983C194.3 67.357 192.719 67.6364 190.977 67.6364ZM190.863 55.6477C192.208 55.6477 193.344 55.34 194.272 54.7244C195.2 54.1089 195.906 53.2235 196.388 52.0682C196.871 50.9129 197.113 49.5303 197.113 47.9205C197.113 46.3485 196.876 44.9612 196.403 43.7585C195.929 42.5559 195.228 41.6136 194.3 40.9318C193.372 40.25 192.227 39.9091 190.863 39.9091C189.442 39.9091 188.259 40.2689 187.312 40.9886C186.374 41.7083 185.669 42.6742 185.195 43.8864C184.731 45.0985 184.499 46.4432 184.499 47.9205C184.499 49.4356 184.736 50.7756 185.21 51.9403C185.692 53.0956 186.403 54.0047 187.34 54.6676C188.287 55.321 189.461 55.6477 190.863 55.6477ZM216.658 33.0341V29.9091H238.477V33.0341H229.329V59H225.806V33.0341H216.658ZM249.158 59.4545C247.189 59.4545 245.46 58.9858 243.974 58.0483C242.496 57.1108 241.341 55.7992 240.508 54.1136C239.684 52.428 239.272 50.4583 239.272 48.2045C239.272 45.9318 239.684 43.9479 240.508 42.2528C241.341 40.5578 242.496 39.2415 243.974 38.304C245.46 37.3665 247.189 36.8977 249.158 36.8977C251.128 36.8977 252.852 37.3665 254.329 38.304C255.816 39.2415 256.971 40.5578 257.795 42.2528C258.628 43.9479 259.045 45.9318 259.045 48.2045C259.045 50.4583 258.628 52.428 257.795 54.1136C256.971 55.7992 255.816 57.1108 254.329 58.0483C252.852 58.9858 251.128 59.4545 249.158 59.4545ZM249.158 56.4432C250.655 56.4432 251.886 56.0597 252.852 55.2926C253.817 54.5256 254.532 53.517 254.996 52.267C255.46 51.017 255.692 49.6629 255.692 48.2045C255.692 46.7462 255.46 45.3873 254.996 44.1278C254.532 42.8684 253.817 41.8504 252.852 41.0739C251.886 40.2973 250.655 39.9091 249.158 39.9091C247.662 39.9091 246.431 40.2973 245.465 41.0739C244.499 41.8504 243.784 42.8684 243.32 44.1278C242.856 45.3873 242.624 46.7462 242.624 48.2045C242.624 49.6629 242.856 51.017 243.32 52.267C243.784 53.517 244.499 54.5256 245.465 55.2926C246.431 56.0597 247.662 56.4432 249.158 56.4432ZM277.912 50.0795V37.1818H281.264V59H277.912V55.3068H277.685C277.173 56.4148 276.378 57.357 275.298 58.1335C274.219 58.9006 272.855 59.2841 271.207 59.2841C269.844 59.2841 268.632 58.9858 267.571 58.3892C266.51 57.7831 265.677 56.8741 265.071 55.6619C264.465 54.4403 264.162 52.9015 264.162 51.0455V37.1818H267.514V50.8182C267.514 52.4091 267.959 53.678 268.849 54.625C269.749 55.572 270.895 56.0455 272.287 56.0455C273.12 56.0455 273.968 55.8324 274.83 55.4062C275.701 54.9801 276.43 54.3267 277.017 53.446C277.614 52.5653 277.912 51.4432 277.912 50.0795ZM287.404 59V37.1818H290.643V40.4773H290.87C291.268 39.3977 291.987 38.5218 293.029 37.8494C294.071 37.1771 295.245 36.8409 296.552 36.8409C296.798 36.8409 297.106 36.8456 297.475 36.8551C297.844 36.8646 298.124 36.8788 298.313 36.8977V40.3068C298.2 40.2784 297.939 40.2358 297.532 40.179C297.134 40.1127 296.713 40.0795 296.268 40.0795C295.207 40.0795 294.26 40.3021 293.427 40.7472C292.603 41.1828 291.95 41.7888 291.467 42.5653C290.993 43.3324 290.756 44.2083 290.756 45.1932V59H287.404ZM305.639 45.875V59H302.287V37.1818H305.526V40.5909H305.81C306.321 39.483 307.098 38.5928 308.139 37.9205C309.181 37.2386 310.526 36.8977 312.173 36.8977C313.651 36.8977 314.943 37.2008 316.051 37.8068C317.159 38.4034 318.021 39.3125 318.636 40.5341C319.252 41.7462 319.56 43.2803 319.56 45.1364V59H316.207V45.3636C316.207 43.6496 315.762 42.3144 314.872 41.358C313.982 40.392 312.76 39.9091 311.207 39.9091C310.137 39.9091 309.181 40.1411 308.338 40.6051C307.505 41.0691 306.847 41.7462 306.364 42.6364C305.881 43.5265 305.639 44.6061 305.639 45.875ZM332.106 59.5114C330.723 59.5114 329.469 59.2509 328.342 58.7301C327.215 58.1998 326.32 57.4375 325.657 56.4432C324.994 55.4394 324.663 54.2273 324.663 52.8068C324.663 51.5568 324.909 50.5436 325.401 49.767C325.894 48.9811 326.552 48.3655 327.376 47.9205C328.2 47.4754 329.109 47.1439 330.103 46.9261C331.107 46.6989 332.115 46.5189 333.129 46.3864C334.454 46.2159 335.529 46.0881 336.353 46.0028C337.186 45.9081 337.792 45.7519 338.171 45.5341C338.559 45.3163 338.754 44.9375 338.754 44.3977V44.2841C338.754 42.8826 338.37 41.7936 337.603 41.017C336.845 40.2405 335.695 39.8523 334.151 39.8523C332.551 39.8523 331.296 40.2027 330.387 40.9034C329.478 41.6042 328.839 42.3523 328.469 43.1477L325.288 42.0114C325.856 40.6856 326.613 39.6534 327.56 38.9148C328.517 38.1667 329.558 37.6458 330.685 37.3523C331.822 37.0492 332.939 36.8977 334.038 36.8977C334.738 36.8977 335.543 36.983 336.452 37.1534C337.371 37.3144 338.256 37.6506 339.109 38.1619C339.97 38.6733 340.685 39.4451 341.254 40.4773C341.822 41.5095 342.106 42.892 342.106 44.625V59H338.754V56.0455H338.583C338.356 56.5189 337.977 57.0256 337.447 57.5653C336.916 58.1051 336.211 58.5644 335.33 58.9432C334.45 59.322 333.375 59.5114 332.106 59.5114ZM332.617 56.5C333.943 56.5 335.06 56.2396 335.969 55.7188C336.888 55.1979 337.579 54.5256 338.043 53.7017C338.517 52.8778 338.754 52.0114 338.754 51.1023V48.0341C338.612 48.2045 338.299 48.3608 337.816 48.5028C337.343 48.6354 336.793 48.7538 336.168 48.858C335.553 48.9527 334.951 49.0379 334.364 49.1136C333.787 49.1799 333.318 49.2367 332.958 49.2841C332.087 49.3977 331.272 49.5824 330.515 49.8381C329.767 50.0843 329.161 50.4583 328.697 50.9602C328.242 51.4527 328.015 52.125 328.015 52.9773C328.015 54.142 328.446 55.0227 329.308 55.6193C330.179 56.2064 331.282 56.5 332.617 56.5ZM348.224 59V37.1818H351.463V40.5909H351.747C352.202 39.4261 352.936 38.5218 353.949 37.8778C354.962 37.2244 356.179 36.8977 357.599 36.8977C359.039 36.8977 360.237 37.2244 361.193 37.8778C362.159 38.5218 362.912 39.4261 363.452 40.5909H363.679C364.238 39.464 365.076 38.5691 366.193 37.9062C367.311 37.2339 368.651 36.8977 370.213 36.8977C372.164 36.8977 373.759 37.5085 375 38.7301C376.241 39.9422 376.861 41.8314 376.861 44.3977V59H373.509V44.3977C373.509 42.7879 373.068 41.6373 372.188 40.946C371.307 40.2547 370.27 39.9091 369.077 39.9091C367.543 39.9091 366.354 40.3731 365.511 41.3011C364.669 42.2197 364.247 43.3845 364.247 44.7955V59H360.838V44.0568C360.838 42.8163 360.436 41.8172 359.631 41.0597C358.826 40.2926 357.789 39.9091 356.52 39.9091C355.649 39.9091 354.834 40.1411 354.077 40.6051C353.329 41.0691 352.723 41.7131 352.259 42.5369C351.804 43.3513 351.577 44.2936 351.577 45.3636V59H348.224ZM392.138 59.4545C390.036 59.4545 388.222 58.9905 386.697 58.0625C385.182 57.125 384.013 55.8182 383.189 54.142C382.375 52.4564 381.967 50.4962 381.967 48.2614C381.967 46.0265 382.375 44.0568 383.189 42.3523C384.013 40.6383 385.159 39.303 386.626 38.3466C388.104 37.3807 389.827 36.8977 391.797 36.8977C392.933 36.8977 394.055 37.0871 395.163 37.4659C396.271 37.8447 397.28 38.4602 398.189 39.3125C399.098 40.1553 399.822 41.2727 400.362 42.6648C400.902 44.0568 401.172 45.7708 401.172 47.8068V49.2273H384.354V46.3295H397.763C397.763 45.0985 397.517 44 397.024 43.0341C396.541 42.0682 395.85 41.3059 394.95 40.7472C394.06 40.1884 393.009 39.9091 391.797 39.9091C390.462 39.9091 389.306 40.2405 388.331 40.9034C387.365 41.5568 386.622 42.4091 386.101 43.4602C385.58 44.5114 385.32 45.6383 385.32 46.8409V48.7727C385.32 50.4205 385.604 51.8172 386.172 52.9631C386.75 54.0994 387.55 54.9659 388.572 55.5625C389.595 56.1496 390.784 56.4432 392.138 56.4432C393.018 56.4432 393.814 56.3201 394.524 56.0739C395.244 55.8182 395.864 55.4394 396.385 54.9375C396.906 54.4261 397.308 53.7917 397.592 53.0341L400.831 53.9432C400.49 55.0417 399.917 56.0076 399.112 56.8409C398.307 57.6648 397.313 58.3087 396.129 58.7727C394.946 59.2273 393.615 59.4545 392.138 59.4545ZM409.624 45.875V59H406.271V37.1818H409.51V40.5909H409.794C410.305 39.483 411.082 38.5928 412.124 37.9205C413.165 37.2386 414.51 36.8977 416.158 36.8977C417.635 36.8977 418.928 37.2008 420.036 37.8068C421.143 38.4034 422.005 39.3125 422.621 40.5341C423.236 41.7462 423.544 43.2803 423.544 45.1364V59H420.192V45.3636C420.192 43.6496 419.747 42.3144 418.857 41.358C417.966 40.392 416.745 39.9091 415.192 39.9091C414.122 39.9091 413.165 40.1411 412.322 40.6051C411.489 41.0691 410.831 41.7462 410.348 42.6364C409.865 43.5265 409.624 44.6061 409.624 45.875ZM439.158 37.1818V40.0227H427.852V37.1818H439.158ZM431.147 31.9545H434.499V52.75C434.499 53.697 434.637 54.4072 434.911 54.8807C435.195 55.3447 435.555 55.6572 435.991 55.8182C436.436 55.9697 436.905 56.0455 437.397 56.0455C437.766 56.0455 438.069 56.0265 438.306 55.9886C438.543 55.9413 438.732 55.9034 438.874 55.875L439.556 58.8864C439.329 58.9716 439.012 59.0568 438.604 59.142C438.197 59.2367 437.681 59.2841 437.056 59.2841C436.109 59.2841 435.181 59.0805 434.272 58.6733C433.372 58.2661 432.624 57.6458 432.028 56.8125C431.441 55.9792 431.147 54.928 431.147 53.6591V31.9545Z" fill="black"/>
<rect x="299" y="147" width="842" height="811" fill="#D9D9D9"/>
<rect x="430.741" y="199" width="580.426" height="203" fill="#5289DB"/>
<path d="M681.28 264.42V262.545H694.371V264.42H688.882V280H686.769V264.42H681.28ZM700.951 280.273C699.689 280.273 698.601 279.994 697.686 279.438C696.777 278.875 696.076 278.091 695.581 277.085C695.093 276.074 694.848 274.898 694.848 273.557C694.848 272.216 695.093 271.034 695.581 270.011C696.076 268.983 696.763 268.182 697.644 267.608C698.53 267.028 699.564 266.739 700.746 266.739C701.428 266.739 702.101 266.852 702.766 267.08C703.431 267.307 704.036 267.676 704.581 268.188C705.127 268.693 705.561 269.364 705.885 270.199C706.209 271.034 706.371 272.062 706.371 273.284V274.136H696.28V272.398H704.326C704.326 271.659 704.178 271 703.882 270.42C703.593 269.841 703.178 269.384 702.638 269.048C702.104 268.713 701.473 268.545 700.746 268.545C699.945 268.545 699.252 268.744 698.667 269.142C698.087 269.534 697.641 270.045 697.329 270.676C697.016 271.307 696.86 271.983 696.86 272.705V273.864C696.86 274.852 697.03 275.69 697.371 276.378C697.718 277.06 698.198 277.58 698.811 277.938C699.425 278.29 700.138 278.466 700.951 278.466C701.479 278.466 701.956 278.392 702.382 278.244C702.814 278.091 703.186 277.864 703.499 277.562C703.811 277.256 704.053 276.875 704.223 276.42L706.167 276.966C705.962 277.625 705.618 278.205 705.135 278.705C704.652 279.199 704.056 279.585 703.346 279.864C702.635 280.136 701.837 280.273 700.951 280.273ZM713.283 280.307C712.454 280.307 711.701 280.151 711.025 279.838C710.348 279.52 709.811 279.062 709.414 278.466C709.016 277.864 708.817 277.136 708.817 276.284C708.817 275.534 708.965 274.926 709.26 274.46C709.556 273.989 709.951 273.619 710.445 273.352C710.939 273.085 711.485 272.886 712.081 272.756C712.684 272.619 713.289 272.511 713.897 272.432C714.692 272.33 715.337 272.253 715.831 272.202C716.331 272.145 716.695 272.051 716.922 271.92C717.155 271.79 717.272 271.562 717.272 271.239V271.17C717.272 270.33 717.042 269.676 716.581 269.21C716.127 268.744 715.436 268.511 714.51 268.511C713.55 268.511 712.797 268.722 712.252 269.142C711.706 269.562 711.323 270.011 711.101 270.489L709.192 269.807C709.533 269.011 709.988 268.392 710.556 267.949C711.13 267.5 711.755 267.187 712.431 267.011C713.113 266.83 713.783 266.739 714.442 266.739C714.863 266.739 715.346 266.79 715.891 266.892C716.442 266.989 716.973 267.19 717.485 267.497C718.002 267.804 718.431 268.267 718.772 268.886C719.113 269.506 719.283 270.335 719.283 271.375V280H717.272V278.227H717.169C717.033 278.511 716.806 278.815 716.488 279.139C716.169 279.463 715.746 279.739 715.218 279.966C714.689 280.193 714.044 280.307 713.283 280.307ZM713.59 278.5C714.385 278.5 715.056 278.344 715.601 278.031C716.152 277.719 716.567 277.315 716.846 276.821C717.13 276.327 717.272 275.807 717.272 275.261V273.42C717.186 273.523 716.999 273.616 716.709 273.702C716.425 273.781 716.096 273.852 715.721 273.915C715.351 273.972 714.99 274.023 714.638 274.068C714.292 274.108 714.01 274.142 713.794 274.17C713.272 274.239 712.783 274.349 712.329 274.503C711.88 274.651 711.516 274.875 711.238 275.176C710.965 275.472 710.829 275.875 710.829 276.386C710.829 277.085 711.087 277.614 711.604 277.972C712.127 278.324 712.789 278.5 713.59 278.5ZM722.954 280V266.909H724.897V268.955H725.068C725.341 268.256 725.781 267.713 726.389 267.327C726.997 266.935 727.727 266.739 728.579 266.739C729.443 266.739 730.162 266.935 730.735 267.327C731.315 267.713 731.767 268.256 732.091 268.955H732.227C732.562 268.278 733.065 267.741 733.735 267.344C734.406 266.94 735.21 266.739 736.147 266.739C737.318 266.739 738.275 267.105 739.02 267.838C739.764 268.565 740.136 269.699 740.136 271.239V280H738.125V271.239C738.125 270.273 737.86 269.582 737.332 269.168C736.804 268.753 736.181 268.545 735.466 268.545C734.545 268.545 733.832 268.824 733.326 269.381C732.821 269.932 732.568 270.631 732.568 271.477V280H730.522V271.034C730.522 270.29 730.281 269.69 729.798 269.236C729.315 268.776 728.693 268.545 727.931 268.545C727.409 268.545 726.92 268.685 726.466 268.963C726.017 269.241 725.653 269.628 725.375 270.122C725.102 270.611 724.966 271.176 724.966 271.818V280H722.954ZM756.666 262.545V280H754.552V264.761H754.45L750.189 267.591V265.443L754.552 262.545H756.666ZM719.596 295.909L714.755 309H712.71L707.869 295.909H710.051L713.664 306.341H713.801L717.414 295.909H719.596ZM731.524 298.841L729.717 299.352C729.603 299.051 729.436 298.759 729.214 298.474C728.998 298.185 728.703 297.946 728.328 297.759C727.953 297.571 727.473 297.477 726.887 297.477C726.086 297.477 725.419 297.662 724.885 298.031C724.356 298.395 724.092 298.858 724.092 299.42C724.092 299.92 724.274 300.315 724.637 300.605C725.001 300.895 725.569 301.136 726.342 301.33L728.285 301.807C729.456 302.091 730.328 302.526 730.902 303.111C731.476 303.69 731.762 304.437 731.762 305.352C731.762 306.102 731.547 306.773 731.115 307.364C730.689 307.955 730.092 308.42 729.325 308.761C728.558 309.102 727.666 309.273 726.649 309.273C725.314 309.273 724.208 308.983 723.333 308.403C722.458 307.824 721.905 306.977 721.672 305.864L723.581 305.386C723.762 306.091 724.106 306.619 724.612 306.972C725.123 307.324 725.791 307.5 726.615 307.5C727.552 307.5 728.297 307.301 728.848 306.903C729.405 306.5 729.683 306.017 729.683 305.455C729.683 305 729.524 304.619 729.206 304.312C728.887 304 728.399 303.767 727.74 303.614L725.558 303.102C724.359 302.818 723.478 302.378 722.916 301.781C722.359 301.179 722.081 300.426 722.081 299.523C722.081 298.784 722.288 298.131 722.703 297.562C723.123 296.994 723.694 296.548 724.416 296.224C725.143 295.901 725.967 295.739 726.887 295.739C728.183 295.739 729.2 296.023 729.939 296.591C730.683 297.159 731.211 297.909 731.524 298.841ZM679.593 322.42V320.545H692.684V322.42H687.195V338H685.081V322.42H679.593ZM699.263 338.273C698.002 338.273 696.914 337.994 695.999 337.438C695.09 336.875 694.388 336.091 693.894 335.085C693.405 334.074 693.161 332.898 693.161 331.557C693.161 330.216 693.405 329.034 693.894 328.011C694.388 326.983 695.076 326.182 695.956 325.608C696.843 325.028 697.877 324.739 699.059 324.739C699.74 324.739 700.414 324.852 701.079 325.08C701.743 325.307 702.348 325.676 702.894 326.188C703.439 326.693 703.874 327.364 704.198 328.199C704.522 329.034 704.684 330.062 704.684 331.284V332.136H694.593V330.398H702.638C702.638 329.659 702.49 329 702.195 328.42C701.905 327.841 701.49 327.384 700.951 327.048C700.417 326.713 699.786 326.545 699.059 326.545C698.257 326.545 697.564 326.744 696.979 327.142C696.4 327.534 695.954 328.045 695.641 328.676C695.329 329.307 695.172 329.983 695.172 330.705V331.864C695.172 332.852 695.343 333.69 695.684 334.378C696.03 335.06 696.51 335.58 697.124 335.938C697.738 336.29 698.451 336.466 699.263 336.466C699.792 336.466 700.269 336.392 700.695 336.244C701.127 336.091 701.499 335.864 701.811 335.562C702.124 335.256 702.365 334.875 702.536 334.42L704.479 334.966C704.275 335.625 703.931 336.205 703.448 336.705C702.965 337.199 702.368 337.585 701.658 337.864C700.948 338.136 700.15 338.273 699.263 338.273ZM711.596 338.307C710.766 338.307 710.013 338.151 709.337 337.838C708.661 337.52 708.124 337.062 707.726 336.466C707.329 335.864 707.13 335.136 707.13 334.284C707.13 333.534 707.277 332.926 707.573 332.46C707.868 331.989 708.263 331.619 708.757 331.352C709.252 331.085 709.797 330.886 710.394 330.756C710.996 330.619 711.601 330.511 712.209 330.432C713.005 330.33 713.65 330.253 714.144 330.202C714.644 330.145 715.007 330.051 715.235 329.92C715.468 329.79 715.584 329.562 715.584 329.239V329.17C715.584 328.33 715.354 327.676 714.894 327.21C714.439 326.744 713.749 326.511 712.823 326.511C711.863 326.511 711.11 326.722 710.564 327.142C710.019 327.562 709.635 328.011 709.414 328.489L707.505 327.807C707.846 327.011 708.3 326.392 708.868 325.949C709.442 325.5 710.067 325.187 710.743 325.011C711.425 324.83 712.096 324.739 712.755 324.739C713.175 324.739 713.658 324.79 714.204 324.892C714.755 324.989 715.286 325.19 715.797 325.497C716.314 325.804 716.743 326.267 717.084 326.886C717.425 327.506 717.596 328.335 717.596 329.375V338H715.584V336.227H715.482C715.346 336.511 715.118 336.815 714.8 337.139C714.482 337.463 714.059 337.739 713.53 337.966C713.002 338.193 712.357 338.307 711.596 338.307ZM711.902 336.5C712.698 336.5 713.368 336.344 713.914 336.031C714.465 335.719 714.88 335.315 715.158 334.821C715.442 334.327 715.584 333.807 715.584 333.261V331.42C715.499 331.523 715.311 331.616 715.022 331.702C714.738 331.781 714.408 331.852 714.033 331.915C713.664 331.972 713.303 332.023 712.951 332.068C712.604 332.108 712.323 332.142 712.107 332.17C711.584 332.239 711.096 332.349 710.641 332.503C710.192 332.651 709.829 332.875 709.55 333.176C709.277 333.472 709.141 333.875 709.141 334.386C709.141 335.085 709.4 335.614 709.917 335.972C710.439 336.324 711.101 336.5 711.902 336.5ZM721.267 338V324.909H723.21V326.955H723.38C723.653 326.256 724.093 325.713 724.701 325.327C725.309 324.935 726.039 324.739 726.892 324.739C727.755 324.739 728.474 324.935 729.048 325.327C729.628 325.713 730.079 326.256 730.403 326.955H730.539C730.875 326.278 731.378 325.741 732.048 325.344C732.718 324.94 733.522 324.739 734.46 324.739C735.63 324.739 736.588 325.105 737.332 325.838C738.076 326.565 738.449 327.699 738.449 329.239V338H736.437V329.239C736.437 328.273 736.173 327.582 735.645 327.168C735.116 326.753 734.494 326.545 733.778 326.545C732.858 326.545 732.145 326.824 731.639 327.381C731.133 327.932 730.88 328.631 730.88 329.477V338H728.835V329.034C728.835 328.29 728.593 327.69 728.11 327.236C727.628 326.776 727.005 326.545 726.244 326.545C725.721 326.545 725.233 326.685 724.778 326.963C724.329 327.241 723.966 327.628 723.687 328.122C723.414 328.611 723.278 329.176 723.278 329.818V338H721.267ZM748.842 338V336.466L754.603 330.159C755.28 329.42 755.836 328.778 756.274 328.233C756.711 327.682 757.035 327.165 757.245 326.682C757.461 326.193 757.569 325.682 757.569 325.148C757.569 324.534 757.422 324.003 757.126 323.554C756.836 323.105 756.439 322.759 755.933 322.514C755.427 322.27 754.859 322.148 754.228 322.148C753.558 322.148 752.973 322.287 752.473 322.565C751.978 322.838 751.595 323.222 751.322 323.716C751.055 324.21 750.922 324.79 750.922 325.455H748.91C748.91 324.432 749.146 323.534 749.618 322.761C750.089 321.989 750.731 321.386 751.544 320.955C752.362 320.523 753.28 320.307 754.297 320.307C755.319 320.307 756.226 320.523 757.015 320.955C757.805 321.386 758.424 321.969 758.873 322.702C759.322 323.435 759.547 324.25 759.547 325.148C759.547 325.79 759.43 326.418 759.197 327.031C758.97 327.639 758.572 328.318 758.004 329.068C757.441 329.812 756.66 330.722 755.66 331.795L751.74 335.989V336.125H759.853V338H748.842Z" fill="white"/>
<rect x="430.741" y="451" width="580.426" height="203" fill="#5289DB"/>
<path d="M681.28 516.42V514.545H694.371V516.42H688.882V532H686.769V516.42H681.28ZM700.951 532.273C699.689 532.273 698.601 531.994 697.686 531.438C696.777 530.875 696.076 530.091 695.581 529.085C695.093 528.074 694.848 526.898 694.848 525.557C694.848 524.216 695.093 523.034 695.581 522.011C696.076 520.983 696.763 520.182 697.644 519.608C698.53 519.028 699.564 518.739 700.746 518.739C701.428 518.739 702.101 518.852 702.766 519.08C703.431 519.307 704.036 519.676 704.581 520.188C705.127 520.693 705.561 521.364 705.885 522.199C706.209 523.034 706.371 524.062 706.371 525.284V526.136H696.28V524.398H704.326C704.326 523.659 704.178 523 703.882 522.42C703.593 521.841 703.178 521.384 702.638 521.048C702.104 520.713 701.473 520.545 700.746 520.545C699.945 520.545 699.252 520.744 698.667 521.142C698.087 521.534 697.641 522.045 697.329 522.676C697.016 523.307 696.86 523.983 696.86 524.705V525.864C696.86 526.852 697.03 527.69 697.371 528.378C697.718 529.06 698.198 529.58 698.811 529.938C699.425 530.29 700.138 530.466 700.951 530.466C701.479 530.466 701.956 530.392 702.382 530.244C702.814 530.091 703.186 529.864 703.499 529.562C703.811 529.256 704.053 528.875 704.223 528.42L706.167 528.966C705.962 529.625 705.618 530.205 705.135 530.705C704.652 531.199 704.056 531.585 703.346 531.864C702.635 532.136 701.837 532.273 700.951 532.273ZM713.283 532.307C712.454 532.307 711.701 532.151 711.025 531.838C710.348 531.52 709.811 531.062 709.414 530.466C709.016 529.864 708.817 529.136 708.817 528.284C708.817 527.534 708.965 526.926 709.26 526.46C709.556 525.989 709.951 525.619 710.445 525.352C710.939 525.085 711.485 524.886 712.081 524.756C712.684 524.619 713.289 524.511 713.897 524.432C714.692 524.33 715.337 524.253 715.831 524.202C716.331 524.145 716.695 524.051 716.922 523.92C717.155 523.79 717.272 523.562 717.272 523.239V523.17C717.272 522.33 717.042 521.676 716.581 521.21C716.127 520.744 715.436 520.511 714.51 520.511C713.55 520.511 712.797 520.722 712.252 521.142C711.706 521.562 711.323 522.011 711.101 522.489L709.192 521.807C709.533 521.011 709.988 520.392 710.556 519.949C711.13 519.5 711.755 519.187 712.431 519.011C713.113 518.83 713.783 518.739 714.442 518.739C714.863 518.739 715.346 518.79 715.891 518.892C716.442 518.989 716.973 519.19 717.485 519.497C718.002 519.804 718.431 520.267 718.772 520.886C719.113 521.506 719.283 522.335 719.283 523.375V532H717.272V530.227H717.169C717.033 530.511 716.806 530.815 716.488 531.139C716.169 531.463 715.746 531.739 715.218 531.966C714.689 532.193 714.044 532.307 713.283 532.307ZM713.59 530.5C714.385 530.5 715.056 530.344 715.601 530.031C716.152 529.719 716.567 529.315 716.846 528.821C717.13 528.327 717.272 527.807 717.272 527.261V525.42C717.186 525.523 716.999 525.616 716.709 525.702C716.425 525.781 716.096 525.852 715.721 525.915C715.351 525.972 714.99 526.023 714.638 526.068C714.292 526.108 714.01 526.142 713.794 526.17C713.272 526.239 712.783 526.349 712.329 526.503C711.88 526.651 711.516 526.875 711.238 527.176C710.965 527.472 710.829 527.875 710.829 528.386C710.829 529.085 711.087 529.614 711.604 529.972C712.127 530.324 712.789 530.5 713.59 530.5ZM722.954 532V518.909H724.897V520.955H725.068C725.341 520.256 725.781 519.713 726.389 519.327C726.997 518.935 727.727 518.739 728.579 518.739C729.443 518.739 730.162 518.935 730.735 519.327C731.315 519.713 731.767 520.256 732.091 520.955H732.227C732.562 520.278 733.065 519.741 733.735 519.344C734.406 518.94 735.21 518.739 736.147 518.739C737.318 518.739 738.275 519.105 739.02 519.838C739.764 520.565 740.136 521.699 740.136 523.239V532H738.125V523.239C738.125 522.273 737.86 521.582 737.332 521.168C736.804 520.753 736.181 520.545 735.466 520.545C734.545 520.545 733.832 520.824 733.326 521.381C732.821 521.932 732.568 522.631 732.568 523.477V532H730.522V523.034C730.522 522.29 730.281 521.69 729.798 521.236C729.315 520.776 728.693 520.545 727.931 520.545C727.409 520.545 726.92 520.685 726.466 520.963C726.017 521.241 725.653 521.628 725.375 522.122C725.102 522.611 724.966 523.176 724.966 523.818V532H722.954ZM756.666 514.545V532H754.552V516.761H754.45L750.189 519.591V517.443L754.552 514.545H756.666ZM719.596 547.909L714.755 561H712.71L707.869 547.909H710.051L713.664 558.341H713.801L717.414 547.909H719.596ZM731.524 550.841L729.717 551.352C729.603 551.051 729.436 550.759 729.214 550.474C728.998 550.185 728.703 549.946 728.328 549.759C727.953 549.571 727.473 549.477 726.887 549.477C726.086 549.477 725.419 549.662 724.885 550.031C724.356 550.395 724.092 550.858 724.092 551.42C724.092 551.92 724.274 552.315 724.637 552.605C725.001 552.895 725.569 553.136 726.342 553.33L728.285 553.807C729.456 554.091 730.328 554.526 730.902 555.111C731.476 555.69 731.762 556.437 731.762 557.352C731.762 558.102 731.547 558.773 731.115 559.364C730.689 559.955 730.092 560.42 729.325 560.761C728.558 561.102 727.666 561.273 726.649 561.273C725.314 561.273 724.208 560.983 723.333 560.403C722.458 559.824 721.905 558.977 721.672 557.864L723.581 557.386C723.762 558.091 724.106 558.619 724.612 558.972C725.123 559.324 725.791 559.5 726.615 559.5C727.552 559.5 728.297 559.301 728.848 558.903C729.405 558.5 729.683 558.017 729.683 557.455C729.683 557 729.524 556.619 729.206 556.312C728.887 556 728.399 555.767 727.74 555.614L725.558 555.102C724.359 554.818 723.478 554.378 722.916 553.781C722.359 553.179 722.081 552.426 722.081 551.523C722.081 550.784 722.288 550.131 722.703 549.562C723.123 548.994 723.694 548.548 724.416 548.224C725.143 547.901 725.967 547.739 726.887 547.739C728.183 547.739 729.2 548.023 729.939 548.591C730.683 549.159 731.211 549.909 731.524 550.841ZM679.593 574.42V572.545H692.684V574.42H687.195V590H685.081V574.42H679.593ZM699.263 590.273C698.002 590.273 696.914 589.994 695.999 589.438C695.09 588.875 694.388 588.091 693.894 587.085C693.405 586.074 693.161 584.898 693.161 583.557C693.161 582.216 693.405 581.034 693.894 580.011C694.388 578.983 695.076 578.182 695.956 577.608C696.843 577.028 697.877 576.739 699.059 576.739C699.74 576.739 700.414 576.852 701.079 577.08C701.743 577.307 702.348 577.676 702.894 578.188C703.439 578.693 703.874 579.364 704.198 580.199C704.522 581.034 704.684 582.062 704.684 583.284V584.136H694.593V582.398H702.638C702.638 581.659 702.49 581 702.195 580.42C701.905 579.841 701.49 579.384 700.951 579.048C700.417 578.713 699.786 578.545 699.059 578.545C698.257 578.545 697.564 578.744 696.979 579.142C696.4 579.534 695.954 580.045 695.641 580.676C695.329 581.307 695.172 581.983 695.172 582.705V583.864C695.172 584.852 695.343 585.69 695.684 586.378C696.03 587.06 696.51 587.58 697.124 587.938C697.738 588.29 698.451 588.466 699.263 588.466C699.792 588.466 700.269 588.392 700.695 588.244C701.127 588.091 701.499 587.864 701.811 587.562C702.124 587.256 702.365 586.875 702.536 586.42L704.479 586.966C704.275 587.625 703.931 588.205 703.448 588.705C702.965 589.199 702.368 589.585 701.658 589.864C700.948 590.136 700.15 590.273 699.263 590.273ZM711.596 590.307C710.766 590.307 710.013 590.151 709.337 589.838C708.661 589.52 708.124 589.062 707.726 588.466C707.329 587.864 707.13 587.136 707.13 586.284C707.13 585.534 707.277 584.926 707.573 584.46C707.868 583.989 708.263 583.619 708.757 583.352C709.252 583.085 709.797 582.886 710.394 582.756C710.996 582.619 711.601 582.511 712.209 582.432C713.005 582.33 713.65 582.253 714.144 582.202C714.644 582.145 715.007 582.051 715.235 581.92C715.468 581.79 715.584 581.562 715.584 581.239V581.17C715.584 580.33 715.354 579.676 714.894 579.21C714.439 578.744 713.749 578.511 712.823 578.511C711.863 578.511 711.11 578.722 710.564 579.142C710.019 579.562 709.635 580.011 709.414 580.489L707.505 579.807C707.846 579.011 708.3 578.392 708.868 577.949C709.442 577.5 710.067 577.187 710.743 577.011C711.425 576.83 712.096 576.739 712.755 576.739C713.175 576.739 713.658 576.79 714.204 576.892C714.755 576.989 715.286 577.19 715.797 577.497C716.314 577.804 716.743 578.267 717.084 578.886C717.425 579.506 717.596 580.335 717.596 581.375V590H715.584V588.227H715.482C715.346 588.511 715.118 588.815 714.8 589.139C714.482 589.463 714.059 589.739 713.53 589.966C713.002 590.193 712.357 590.307 711.596 590.307ZM711.902 588.5C712.698 588.5 713.368 588.344 713.914 588.031C714.465 587.719 714.88 587.315 715.158 586.821C715.442 586.327 715.584 585.807 715.584 585.261V583.42C715.499 583.523 715.311 583.616 715.022 583.702C714.738 583.781 714.408 583.852 714.033 583.915C713.664 583.972 713.303 584.023 712.951 584.068C712.604 584.108 712.323 584.142 712.107 584.17C711.584 584.239 711.096 584.349 710.641 584.503C710.192 584.651 709.829 584.875 709.55 585.176C709.277 585.472 709.141 585.875 709.141 586.386C709.141 587.085 709.4 587.614 709.917 587.972C710.439 588.324 711.101 588.5 711.902 588.5ZM721.267 590V576.909H723.21V578.955H723.38C723.653 578.256 724.093 577.713 724.701 577.327C725.309 576.935 726.039 576.739 726.892 576.739C727.755 576.739 728.474 576.935 729.048 577.327C729.628 577.713 730.079 578.256 730.403 578.955H730.539C730.875 578.278 731.378 577.741 732.048 577.344C732.718 576.94 733.522 576.739 734.46 576.739C735.63 576.739 736.588 577.105 737.332 577.838C738.076 578.565 738.449 579.699 738.449 581.239V590H736.437V581.239C736.437 580.273 736.173 579.582 735.645 579.168C735.116 578.753 734.494 578.545 733.778 578.545C732.858 578.545 732.145 578.824 731.639 579.381C731.133 579.932 730.88 580.631 730.88 581.477V590H728.835V581.034C728.835 580.29 728.593 579.69 728.11 579.236C727.628 578.776 727.005 578.545 726.244 578.545C725.721 578.545 725.233 578.685 724.778 578.963C724.329 579.241 723.966 579.628 723.687 580.122C723.414 580.611 723.278 581.176 723.278 581.818V590H721.267ZM748.842 590V588.466L754.603 582.159C755.28 581.42 755.836 580.778 756.274 580.233C756.711 579.682 757.035 579.165 757.245 578.682C757.461 578.193 757.569 577.682 757.569 577.148C757.569 576.534 757.422 576.003 757.126 575.554C756.836 575.105 756.439 574.759 755.933 574.514C755.427 574.27 754.859 574.148 754.228 574.148C753.558 574.148 752.973 574.287 752.473 574.565C751.978 574.838 751.595 575.222 751.322 575.716C751.055 576.21 750.922 576.79 750.922 577.455H748.91C748.91 576.432 749.146 575.534 749.618 574.761C750.089 573.989 750.731 573.386 751.544 572.955C752.362 572.523 753.28 572.307 754.297 572.307C755.319 572.307 756.226 572.523 757.015 572.955C757.805 573.386 758.424 573.969 758.873 574.702C759.322 575.435 759.547 576.25 759.547 577.148C759.547 577.79 759.43 578.418 759.197 579.031C758.97 579.639 758.572 580.318 758.004 581.068C757.441 581.812 756.66 582.722 755.66 583.795L751.74 587.989V588.125H759.853V590H748.842Z" fill="white"/>
<rect x="430.741" y="703" width="580.426" height="203" fill="#5289DB"/>
<path d="M681.28 768.42V766.545H694.371V768.42H688.882V784H686.769V768.42H681.28ZM700.951 784.273C699.689 784.273 698.601 783.994 697.686 783.438C696.777 782.875 696.076 782.091 695.581 781.085C695.093 780.074 694.848 778.898 694.848 777.557C694.848 776.216 695.093 775.034 695.581 774.011C696.076 772.983 696.763 772.182 697.644 771.608C698.53 771.028 699.564 770.739 700.746 770.739C701.428 770.739 702.101 770.852 702.766 771.08C703.431 771.307 704.036 771.676 704.581 772.188C705.127 772.693 705.561 773.364 705.885 774.199C706.209 775.034 706.371 776.062 706.371 777.284V778.136H696.28V776.398H704.326C704.326 775.659 704.178 775 703.882 774.42C703.593 773.841 703.178 773.384 702.638 773.048C702.104 772.713 701.473 772.545 700.746 772.545C699.945 772.545 699.252 772.744 698.667 773.142C698.087 773.534 697.641 774.045 697.329 774.676C697.016 775.307 696.86 775.983 696.86 776.705V777.864C696.86 778.852 697.03 779.69 697.371 780.378C697.718 781.06 698.198 781.58 698.811 781.938C699.425 782.29 700.138 782.466 700.951 782.466C701.479 782.466 701.956 782.392 702.382 782.244C702.814 782.091 703.186 781.864 703.499 781.562C703.811 781.256 704.053 780.875 704.223 780.42L706.167 780.966C705.962 781.625 705.618 782.205 705.135 782.705C704.652 783.199 704.056 783.585 703.346 783.864C702.635 784.136 701.837 784.273 700.951 784.273ZM713.283 784.307C712.454 784.307 711.701 784.151 711.025 783.838C710.348 783.52 709.811 783.062 709.414 782.466C709.016 781.864 708.817 781.136 708.817 780.284C708.817 779.534 708.965 778.926 709.26 778.46C709.556 777.989 709.951 777.619 710.445 777.352C710.939 777.085 711.485 776.886 712.081 776.756C712.684 776.619 713.289 776.511 713.897 776.432C714.692 776.33 715.337 776.253 715.831 776.202C716.331 776.145 716.695 776.051 716.922 775.92C717.155 775.79 717.272 775.562 717.272 775.239V775.17C717.272 774.33 717.042 773.676 716.581 773.21C716.127 772.744 715.436 772.511 714.51 772.511C713.55 772.511 712.797 772.722 712.252 773.142C711.706 773.562 711.323 774.011 711.101 774.489L709.192 773.807C709.533 773.011 709.988 772.392 710.556 771.949C711.13 771.5 711.755 771.187 712.431 771.011C713.113 770.83 713.783 770.739 714.442 770.739C714.863 770.739 715.346 770.79 715.891 770.892C716.442 770.989 716.973 771.19 717.485 771.497C718.002 771.804 718.431 772.267 718.772 772.886C719.113 773.506 719.283 774.335 719.283 775.375V784H717.272V782.227H717.169C717.033 782.511 716.806 782.815 716.488 783.139C716.169 783.463 715.746 783.739 715.218 783.966C714.689 784.193 714.044 784.307 713.283 784.307ZM713.59 782.5C714.385 782.5 715.056 782.344 715.601 782.031C716.152 781.719 716.567 781.315 716.846 780.821C717.13 780.327 717.272 779.807 717.272 779.261V777.42C717.186 777.523 716.999 777.616 716.709 777.702C716.425 777.781 716.096 777.852 715.721 777.915C715.351 777.972 714.99 778.023 714.638 778.068C714.292 778.108 714.01 778.142 713.794 778.17C713.272 778.239 712.783 778.349 712.329 778.503C711.88 778.651 711.516 778.875 711.238 779.176C710.965 779.472 710.829 779.875 710.829 780.386C710.829 781.085 711.087 781.614 711.604 781.972C712.127 782.324 712.789 782.5 713.59 782.5ZM722.954 784V770.909H724.897V772.955H725.068C725.341 772.256 725.781 771.713 726.389 771.327C726.997 770.935 727.727 770.739 728.579 770.739C729.443 770.739 730.162 770.935 730.735 771.327C731.315 771.713 731.767 772.256 732.091 772.955H732.227C732.562 772.278 733.065 771.741 733.735 771.344C734.406 770.94 735.21 770.739 736.147 770.739C737.318 770.739 738.275 771.105 739.02 771.838C739.764 772.565 740.136 773.699 740.136 775.239V784H738.125V775.239C738.125 774.273 737.86 773.582 737.332 773.168C736.804 772.753 736.181 772.545 735.466 772.545C734.545 772.545 733.832 772.824 733.326 773.381C732.821 773.932 732.568 774.631 732.568 775.477V784H730.522V775.034C730.522 774.29 730.281 773.69 729.798 773.236C729.315 772.776 728.693 772.545 727.931 772.545C727.409 772.545 726.92 772.685 726.466 772.963C726.017 773.241 725.653 773.628 725.375 774.122C725.102 774.611 724.966 775.176 724.966 775.818V784H722.954ZM756.666 766.545V784H754.552V768.761H754.45L750.189 771.591V769.443L754.552 766.545H756.666ZM719.596 799.909L714.755 813H712.71L707.869 799.909H710.051L713.664 810.341H713.801L717.414 799.909H719.596ZM731.524 802.841L729.717 803.352C729.603 803.051 729.436 802.759 729.214 802.474C728.998 802.185 728.703 801.946 728.328 801.759C727.953 801.571 727.473 801.477 726.887 801.477C726.086 801.477 725.419 801.662 724.885 802.031C724.356 802.395 724.092 802.858 724.092 803.42C724.092 803.92 724.274 804.315 724.637 804.605C725.001 804.895 725.569 805.136 726.342 805.33L728.285 805.807C729.456 806.091 730.328 806.526 730.902 807.111C731.476 807.69 731.762 808.437 731.762 809.352C731.762 810.102 731.547 810.773 731.115 811.364C730.689 811.955 730.092 812.42 729.325 812.761C728.558 813.102 727.666 813.273 726.649 813.273C725.314 813.273 724.208 812.983 723.333 812.403C722.458 811.824 721.905 810.977 721.672 809.864L723.581 809.386C723.762 810.091 724.106 810.619 724.612 810.972C725.123 811.324 725.791 811.5 726.615 811.5C727.552 811.5 728.297 811.301 728.848 810.903C729.405 810.5 729.683 810.017 729.683 809.455C729.683 809 729.524 808.619 729.206 808.312C728.887 808 728.399 807.767 727.74 807.614L725.558 807.102C724.359 806.818 723.478 806.378 722.916 805.781C722.359 805.179 722.081 804.426 722.081 803.523C722.081 802.784 722.288 802.131 722.703 801.562C723.123 800.994 723.694 800.548 724.416 800.224C725.143 799.901 725.967 799.739 726.887 799.739C728.183 799.739 729.2 800.023 729.939 800.591C730.683 801.159 731.211 801.909 731.524 802.841ZM679.593 826.42V824.545H692.684V826.42H687.195V842H685.081V826.42H679.593ZM699.263 842.273C698.002 842.273 696.914 841.994 695.999 841.438C695.09 840.875 694.388 840.091 693.894 839.085C693.405 838.074 693.161 836.898 693.161 835.557C693.161 834.216 693.405 833.034 693.894 832.011C694.388 830.983 695.076 830.182 695.956 829.608C696.843 829.028 697.877 828.739 699.059 828.739C699.74 828.739 700.414 828.852 701.079 829.08C701.743 829.307 702.348 829.676 702.894 830.188C703.439 830.693 703.874 831.364 704.198 832.199C704.522 833.034 704.684 834.062 704.684 835.284V836.136H694.593V834.398H702.638C702.638 833.659 702.49 833 702.195 832.42C701.905 831.841 701.49 831.384 700.951 831.048C700.417 830.713 699.786 830.545 699.059 830.545C698.257 830.545 697.564 830.744 696.979 831.142C696.4 831.534 695.954 832.045 695.641 832.676C695.329 833.307 695.172 833.983 695.172 834.705V835.864C695.172 836.852 695.343 837.69 695.684 838.378C696.03 839.06 696.51 839.58 697.124 839.938C697.738 840.29 698.451 840.466 699.263 840.466C699.792 840.466 700.269 840.392 700.695 840.244C701.127 840.091 701.499 839.864 701.811 839.562C702.124 839.256 702.365 838.875 702.536 838.42L704.479 838.966C704.275 839.625 703.931 840.205 703.448 840.705C702.965 841.199 702.368 841.585 701.658 841.864C700.948 842.136 700.15 842.273 699.263 842.273ZM711.596 842.307C710.766 842.307 710.013 842.151 709.337 841.838C708.661 841.52 708.124 841.062 707.726 840.466C707.329 839.864 707.13 839.136 707.13 838.284C707.13 837.534 707.277 836.926 707.573 836.46C707.868 835.989 708.263 835.619 708.757 835.352C709.252 835.085 709.797 834.886 710.394 834.756C710.996 834.619 711.601 834.511 712.209 834.432C713.005 834.33 713.65 834.253 714.144 834.202C714.644 834.145 715.007 834.051 715.235 833.92C715.468 833.79 715.584 833.562 715.584 833.239V833.17C715.584 832.33 715.354 831.676 714.894 831.21C714.439 830.744 713.749 830.511 712.823 830.511C711.863 830.511 711.11 830.722 710.564 831.142C710.019 831.562 709.635 832.011 709.414 832.489L707.505 831.807C707.846 831.011 708.3 830.392 708.868 829.949C709.442 829.5 710.067 829.187 710.743 829.011C711.425 828.83 712.096 828.739 712.755 828.739C713.175 828.739 713.658 828.79 714.204 828.892C714.755 828.989 715.286 829.19 715.797 829.497C716.314 829.804 716.743 830.267 717.084 830.886C717.425 831.506 717.596 832.335 717.596 833.375V842H715.584V840.227H715.482C715.346 840.511 715.118 840.815 714.8 841.139C714.482 841.463 714.059 841.739 713.53 841.966C713.002 842.193 712.357 842.307 711.596 842.307ZM711.902 840.5C712.698 840.5 713.368 840.344 713.914 840.031C714.465 839.719 714.88 839.315 715.158 838.821C715.442 838.327 715.584 837.807 715.584 837.261V835.42C715.499 835.523 715.311 835.616 715.022 835.702C714.738 835.781 714.408 835.852 714.033 835.915C713.664 835.972 713.303 836.023 712.951 836.068C712.604 836.108 712.323 836.142 712.107 836.17C711.584 836.239 711.096 836.349 710.641 836.503C710.192 836.651 709.829 836.875 709.55 837.176C709.277 837.472 709.141 837.875 709.141 838.386C709.141 839.085 709.4 839.614 709.917 839.972C710.439 840.324 711.101 840.5 711.902 840.5ZM721.267 842V828.909H723.21V830.955H723.38C723.653 830.256 724.093 829.713 724.701 829.327C725.309 828.935 726.039 828.739 726.892 828.739C727.755 828.739 728.474 828.935 729.048 829.327C729.628 829.713 730.079 830.256 730.403 830.955H730.539C730.875 830.278 731.378 829.741 732.048 829.344C732.718 828.94 733.522 828.739 734.46 828.739C735.63 828.739 736.588 829.105 737.332 829.838C738.076 830.565 738.449 831.699 738.449 833.239V842H736.437V833.239C736.437 832.273 736.173 831.582 735.645 831.168C735.116 830.753 734.494 830.545 733.778 830.545C732.858 830.545 732.145 830.824 731.639 831.381C731.133 831.932 730.88 832.631 730.88 833.477V842H728.835V833.034C728.835 832.29 728.593 831.69 728.11 831.236C727.628 830.776 727.005 830.545 726.244 830.545C725.721 830.545 725.233 830.685 724.778 830.963C724.329 831.241 723.966 831.628 723.687 832.122C723.414 832.611 723.278 833.176 723.278 833.818V842H721.267ZM748.842 842V840.466L754.603 834.159C755.28 833.42 755.836 832.778 756.274 832.233C756.711 831.682 757.035 831.165 757.245 830.682C757.461 830.193 757.569 829.682 757.569 829.148C757.569 828.534 757.422 828.003 757.126 827.554C756.836 827.105 756.439 826.759 755.933 826.514C755.427 826.27 754.859 826.148 754.228 826.148C753.558 826.148 752.973 826.287 752.473 826.565C751.978 826.838 751.595 827.222 751.322 827.716C751.055 828.21 750.922 828.79 750.922 829.455H748.91C748.91 828.432 749.146 827.534 749.618 826.761C750.089 825.989 750.731 825.386 751.544 824.955C752.362 824.523 753.28 824.307 754.297 824.307C755.319 824.307 756.226 824.523 757.015 824.955C757.805 825.386 758.424 825.969 758.873 826.702C759.322 827.435 759.547 828.25 759.547 829.148C759.547 829.79 759.43 830.418 759.197 831.031C758.97 831.639 758.572 832.318 758.004 833.068C757.441 833.812 756.66 834.722 755.66 835.795L751.74 839.989V840.125H759.853V842H748.842Z" fill="white"/>
</svg>
